<?xml version="1.0" encoding="utf-8"?>
<!-- Generator: Adobe Illustrator 18.1.0, SVG Export Plug-In . SVG Version: 6.00 Build 0)  -->
<!DOCTYPE svg PUBLIC "-//W3C//DTD SVG 1.1//EN" "http://www.w3.org/Graphics/SVG/1.1/DTD/svg11.dtd">
<svg version="1.1" xmlns="http://www.w3.org/2000/svg" xmlns:xlink="http://www.w3.org/1999/xlink" x="0px" y="0px"
	 viewBox="0 0 128 68" enable-background="new 0 0 128 68" xml:space="preserve">
<g id="Ebene_2" display="none">
	<rect display="inline" fill="#1E1E1E" width="128" height="68"/>
</g>
<g id="home_x2F_news">
	<polygon fill="#FFFFFF" points="95.6,39.7 64.4,8.5 63.7,7.8 31.8,39.7 42.3,39.7 42.3,58.8 64.4,58.8 64.4,45.5 75.1,45.5 
		75.1,58.8 85.1,58.8 85.1,39.7 	"/>
</g>
<g id="cal" display="none">
	<g display="inline">
		<path fill="#FFFFFF" d="M90.6,55H37.2V16.4h6.7V23h10.7v-6.7h18.6V23h10.7v-6.7h6.7V55z M86.5,51.1V27H41.2v24H86.5z M51.9,20.4
			h-5.3v-8h5.3V20.4z M57.6,43.1L57.6,43.1l5.2,0.1v2.3h-8.4v-2.2l3.7-3.5c0.9-0.9,2-2,2-3.3c0-1.2-0.7-1.8-1.9-1.8
			c-1.2,0-2.3,0.5-3.2,1.3v-2.5c1.1-0.7,2.4-1.1,3.8-1.1c2.3,0,4.2,1.1,4.2,3.6C62.9,39,59.5,41.5,57.6,43.1z M68.4,45.7
			c-1.1,0-2.2-0.2-3.2-0.7v-2.4c0.9,0.6,1.9,0.9,3,0.9c1.1,0,2.3-0.4,2.3-1.8c0-2-2.7-1.8-4-1.8v-2.2c1.2,0,3.6,0.2,3.6-1.6
			c0-1.2-0.9-1.6-1.9-1.6c-0.9,0-1.8,0.3-2.5,0.8v-2.3c1-0.5,2.1-0.7,3.2-0.7c2,0,4.1,0.8,4.1,3.2c0,1.7-0.9,2.7-2.5,3.2v0.1
			c1.6,0.2,2.9,1.2,2.9,3C73.4,44.7,70.9,45.7,68.4,45.7z M81.2,20.4h-5.3v-8h5.3V20.4z"/>
	</g>
</g>
<g id="entdecken" display="none">
	<g display="inline">
		<polygon fill="#FFFFFF" points="78.9,21.2 78.3,22.4 58.1,57.5 79,57.5 99.8,57.5 		"/>
		<g>
			<polygon fill="#FFFFFF" points="49.1,16.1 38.7,34.2 28.2,52.4 49.2,52.4 58,52.4 64,41.9 			"/>
			<polygon fill="#FFFFFF" points="65.5,39.2 73.5,25.4 63.8,8.5 55.8,22.3 			"/>
		</g>
	</g>
</g>
<g id="profil" display="none">
	<g display="inline">
		<g>
			<circle fill="#FFFFFF" cx="40.8" cy="22.4" r="7.4"/>
		</g>
		<g>
			<circle fill="#FFFFFF" cx="87.2" cy="22.4" r="7.4"/>
		</g>
		<circle fill="#FFFFFF" cx="64.1" cy="23.4" r="10.9"/>
		<path fill="#FFFFFF" d="M64.1,12.5c6,0,10.9,4.9,10.9,10.9c0,6-4.9,10.9-10.9,10.9s-10.9-4.9-10.9-10.9
			C53.1,17.4,58,12.5,64.1,12.5"/>
		<polygon fill="#FFFFFF" points="69.4,39.1 58.7,39.1 40.9,50 40.9,56.5 87.2,56.5 87.2,50 		"/>
		<polyline fill="#FFFFFF" points="69.4,39.1 87.2,50 87.2,56.5 40.9,56.5 40.9,50 58.7,39.1 69.4,39.1 		"/>
		<g>
			<polygon fill="#FFFFFF" points="52.7,38.1 44.4,33 37.1,33 25,40.4 25,44.9 41.5,44.9 			"/>
		</g>
		<g>
			<polygon fill="#FFFFFF" points="90.9,33 83.6,33 75.4,38 86.6,44.9 103,44.9 103,40.4 			"/>
		</g>
	</g>
</g>
<g id="gruppen" display="none">
	<circle display="inline" fill="#FFFFFF" cx="64.1" cy="23.4" r="10.9"/>
	<path display="inline" fill="#FFFFFF" d="M64.1,12.5c6,0,10.9,4.9,10.9,10.9c0,6-4.9,10.9-10.9,10.9s-10.9-4.9-10.9-10.9
		C53.1,17.4,58,12.5,64.1,12.5"/>
	<polygon display="inline" fill="#FFFFFF" points="69.4,39.1 58.7,39.1 40.9,50 40.9,56.5 87.2,56.5 87.2,50 	"/>
	<polyline display="inline" fill="#FFFFFF" points="69.4,39.1 87.2,50 87.2,56.5 40.9,56.5 40.9,50 58.7,39.1 69.4,39.1 	"/>
</g>
</svg>
