<?xml version="1.0" encoding="utf-8"?>
<!-- Generator: Adobe Illustrator 18.1.0, SVG Export Plug-In . SVG Version: 6.00 Build 0)  -->
<!DOCTYPE svg PUBLIC "-//W3C//DTD SVG 1.1//EN" "http://www.w3.org/Graphics/SVG/1.1/DTD/svg11.dtd">
<svg version="1.1" xmlns="http://www.w3.org/2000/svg" xmlns:xlink="http://www.w3.org/1999/xlink" x="0px" y="0px"
	 viewBox="0 0 57.7 57.7" enable-background="new 0 0 57.7 57.7" xml:space="preserve">
<g id="_x32_0-nichtteilnehmen" display="none">
	<g display="inline">
		<path fill="none" d="M57.8,57.8H0V0h57.8V57.8z M43.3,17.7L40,14.5c-0.3-0.3-0.6-0.4-1-0.4c-0.4,0-0.8,0.1-1.1,0.4l-9.1,9.1
			l-9.1-9.1c-0.3-0.3-0.7-0.4-1.1-0.4c-0.4,0-0.8,0.1-1,0.4l-3.2,3.2c-0.3,0.3-0.4,0.6-0.4,1s0.1,0.8,0.4,1.1l9.1,9.1L14.5,38
			C14.2,38.3,14,38.6,14,39c0,0.4,0.1,0.8,0.4,1l3.2,3.2c0.3,0.3,0.6,0.4,1,0.4c0.4,0,0.8-0.1,1.1-0.4l9.1-9.1l9.1,9.1
			c0.3,0.3,0.7,0.4,1.1,0.4c0.4,0,0.8-0.1,1-0.4l3.2-3.2c0.3-0.3,0.4-0.6,0.4-1c0-0.4-0.1-0.8-0.4-1.1l-9.1-9.1l9.1-9.1
			c0.3-0.3,0.4-0.7,0.4-1.1S43.5,18,43.3,17.7z"/>
	</g>
</g>
<g id="_x31_9-teilnehmen" display="none">
	<g display="inline">
		<path fill="none" d="M57.8,57.7H0.1V0h57.7V57.7z M47.5,19.3L44.2,16c-0.3-0.3-0.7-0.4-1.1-0.4c-0.4,0-0.8,0.1-1.1,0.4L22.5,35.5
			l-9.3-9.3c-0.3-0.3-0.7-0.5-1.1-0.5c-0.4,0-0.8,0.2-1.1,0.5l-3.2,3.2c-0.3,0.3-0.5,0.7-0.5,1.1c0,0.4,0.2,0.8,0.5,1.1L18.2,42l0,0
			c0.9,0.9,1.9,1.8,2.8,2.8c0.5,0.5,0.9,0.9,1.6,0.9c0.4,0,0.8-0.2,1.1-0.5l23.8-23.8c0.3-0.3,0.5-0.7,0.5-1.1
			C47.9,20,47.7,19.6,47.5,19.3z"/>
	</g>
</g>
<g id="_x31_8_profil" display="none">
	<path display="inline" fill="none" d="M28.9,13.5c4.5,0,8.1,3.6,8.1,8.1c0,4.5-3.6,8.1-8.1,8.1s-8.1-3.6-8.1-8.1
		C20.8,17.1,24.4,13.5,28.9,13.5"/>
	<polyline display="inline" fill="none" points="32.8,33.1 46,41.1 46,46 11.8,46 11.8,41.1 24.9,33.1 32.8,33.1 	"/>
</g>
<g id="_x31_7_gruppen" display="none">
	<g display="inline">
		<g>
			<circle fill="none" cx="11.7" cy="20.8" r="5.5"/>
		</g>
		<g>
			<circle fill="none" cx="46" cy="20.8" r="5.5"/>
		</g>
		<circle fill="none" cx="28.9" cy="21.6" r="8.1"/>
		<path fill="none" d="M28.9,13.5c4.5,0,8.1,3.6,8.1,8.1c0,4.5-3.6,8.1-8.1,8.1s-8.1-3.6-8.1-8.1C20.8,17.1,24.4,13.5,28.9,13.5"/>
		<polygon fill="none" points="32.8,33.1 24.9,33.1 11.8,41.1 11.8,46 46,46 46,41.1 		"/>
		<polyline fill="none" points="32.8,33.1 46,41.1 46,46 11.8,46 11.8,41.1 24.9,33.1 32.8,33.1 		"/>
		<g>
			<polygon fill="none" points="20.5,32.4 14.4,28.6 9,28.6 0.1,34.1 0.1,37.4 12.3,37.4 			"/>
		</g>
		<g>
			<polygon fill="none" points="48.6,28.6 43.3,28.6 37.2,32.3 45.5,37.4 57.6,37.4 57.6,34.1 			"/>
		</g>
	</g>
</g>
<g id="_x31_6_entdecken" display="none">
	<g display="inline">
		<polygon fill="none" points="39.8,20.3 39.4,21.2 24.5,47.1 39.9,47.1 55.2,47 		"/>
		<g>
			<polygon fill="none" points="17.9,16.5 10.2,29.9 2.4,43.3 17.9,43.3 24.4,43.3 28.8,35.6 			"/>
			<polygon fill="none" points="30,33.6 35.8,23.4 28.6,11 22.8,21.2 			"/>
		</g>
	</g>
</g>
<g id="_x31_5_kalender" display="none">
	<g display="inline">
		<path fill="none" d="M48.5,45H9.2V16.5h4.9v4.9H22v-4.9h13.8v4.9h7.9v-4.9h4.9V45z M45.5,42.1V24.4H12.1v17.7H45.5z M20,19.4H16
			v-5.9H20V19.4z M24.2,36.2L24.2,36.2l3.8,0V38h-6.2v-1.6l2.7-2.6c0.7-0.7,1.5-1.4,1.5-2.4c0-0.9-0.5-1.3-1.4-1.3
			c-0.9,0-1.7,0.4-2.3,1v-1.8c0.8-0.5,1.8-0.8,2.8-0.8c1.7,0,3.1,0.8,3.1,2.7C28.1,33.2,25.6,35,24.2,36.2z M32.2,38.1
			c-0.8,0-1.6-0.1-2.4-0.5v-1.8c0.6,0.5,1.4,0.7,2.2,0.7c0.8,0,1.7-0.3,1.7-1.3c0-1.4-2-1.3-2.9-1.3v-1.6c0.9,0,2.6,0.2,2.6-1.2
			c0-0.9-0.6-1.2-1.4-1.2c-0.7,0-1.3,0.3-1.8,0.6v-1.7c0.7-0.4,1.5-0.5,2.3-0.5c1.5,0,3.1,0.6,3.1,2.3c0,1.3-0.7,2-1.9,2.3v0
			c1.2,0.2,2.2,0.9,2.2,2.2C35.8,37.3,34,38.1,32.2,38.1z M41.6,19.4h-3.9v-5.9h3.9V19.4z"/>
	</g>
</g>
<g id="_x31_4_home_x2F_news" display="none">
	<polygon display="inline" fill="none" points="52.6,33.3 29.6,10.3 29.1,9.8 5.6,33.3 13.3,33.3 13.3,47.4 29.6,47.4 29.6,37.7 
		37.5,37.7 37.5,47.4 44.9,47.4 44.9,33.3 	"/>
</g>
<g id="_x31_3_logout" display="none">
	<g display="inline">
		<g>
			<path fill="none" d="M29.1,48.9c-11,0-20-9-20-20s9-20,20-20s20,9,20,20S40.1,48.9,29.1,48.9z"/>
		</g>
		<path fill="none" d="M30.4,14.9c0-0.6-0.5-1.1-1.1-1.1c-0.6,0-1,0.5-1,1.1v8.5c0,0.6,0.5,1,1,1c0.6,0,1.1-0.5,1.1-1V14.9z"/>
		<path fill="none" d="M29.1,41.7c-7.2,0-13-5.8-13-13c0-4.7,2.6-9.1,6.8-11.4c1-0.5,2.2-0.2,2.7,0.8c0.5,1,0.2,2.2-0.8,2.7
			c-2.9,1.6-4.7,4.6-4.7,7.9c0,5,4,9,9,9c5,0,9-4,9-9c0-3.2-1.6-6.1-4.4-7.7c-0.9-0.6-1.3-1.8-0.7-2.7c0.6-0.9,1.8-1.3,2.7-0.7
			c4,2.4,6.3,6.5,6.3,11.1C42.1,35.9,36.2,41.7,29.1,41.7z"/>
	</g>
</g>
<g id="_x31_2_mehr_Infos" display="none">
	<g display="inline">
		<path fill="none" d="M28.8,48.8c-11,0-20-9-20-20s9-20,20-20s20,9,20,20S39.9,48.8,28.8,48.8z M28.8,13.6
			c-8.4,0-15.2,6.8-15.2,15.2S20.5,44,28.8,44S44,37.2,44,28.8S37.2,13.6,28.8,13.6z M36.1,24.8H21.6c-1,0-1.5-1.1-1.5-2
			s0.5-2,1.5-2h14.5c1,0,1.5,1.1,1.5,2S37.1,24.8,36.1,24.8z M36.1,31.2H21.6c-1,0-1.5-1.1-1.5-2s0.5-2,1.5-2h14.5
			c1,0,1.5,1.1,1.5,2S37.1,31.2,36.1,31.2z M36.1,37.6H21.6c-1,0-1.5-1.1-1.5-2s0.5-2,1.5-2h14.5c1,0,1.5,1.1,1.5,2
			S37.1,37.6,36.1,37.6z"/>
	</g>
</g>
<g id="_x31_1_infos">
	<g>
		<path fill="none" d="M28.3,49.3c-11,0-20-9-20-20s9-20,20-20s20,9,20,20S39.4,49.3,28.3,49.3z M33.4,40.2
			c-0.6,0.3-1.6,0.5-2.2,0.5c-1.4,0-2.1-0.3-2.1-1.8c0-3.4,2.4-7.1,2.4-10.8c0-2.7-2.2-3.8-4.6-3.8c-1.8,0-3.7,0.8-5.4,1.5L21,27.4
			c0.7-0.3,1.5-0.5,2.3-0.5c1.4,0,2,0.3,2,1.8c0,3.4-2.4,7.2-2.4,10.9c0,2.7,2.2,3.8,4.6,3.8c1.9,0,3.6-0.8,5.4-1.5L33.4,40.2z
			 M30.2,14.5c-1.9,0-3.6,1.4-3.6,3.4s1.7,3.3,3.6,3.3c1.9,0,3.6-1.4,3.6-3.3S32.1,14.5,30.2,14.5z"/>
	</g>
</g>
<g id="_x31_0_hinweise" display="none">
	<g display="inline">
		<path fill="none" d="M28.8,48.8c-11,0-20-9-20-20s9-20,20-20s20,9,20,20S39.9,48.8,28.8,48.8z M31.1,19.4c0-1.3-1-2.3-2.3-2.3
			s-2.3,1.1-2.3,2.3v10.8c0,1.3,1,2.3,2.3,2.3s2.3-1,2.3-2.3V19.4z M28.8,35.6c-1.3,0-2.3,1-2.3,2.3s1,2.3,2.3,2.3s2.3-1,2.3-2.3
			S30.1,35.6,28.8,35.6z"/>
	</g>
</g>
<g id="_x30_9_treffpunkt" display="none">
	<path display="inline" fill="none" d="M28.8,48.8c-11,0-20-9-20-20s9-20,20-20s20,9,20,20S39.9,48.8,28.8,48.8z M29.9,14.2
		c0-0.6-0.5-1.1-1.1-1.1s-1,0.5-1,1.1v3.2c0,0.6,0.5,1,1,1s1.1-0.5,1.1-1V14.2z M29.9,40.2c0-0.6-0.5-1.1-1.1-1.1s-1,0.5-1,1.1v3.2
		c0,0.6,0.5,1.1,1,1.1s1.1-0.5,1.1-1.1V40.2z M42.9,29.9c0.6,0,1.1-0.5,1.1-1.1s-0.5-1-1-1l-3.2,0c-0.6,0-1,0.5-1.1,1.1s0.4,1,1,1
		L42.9,29.9z M17.3,29.9c0.6,0,1.1-0.5,1.1-1.1c0-0.6-0.5-1-1-1l-3.2,0c-0.6,0-1,0.5-1.1,1.1c0,0.6,0.4,1,1,1L17.3,29.9z M28.8,22.8
		c-3.3,0-6.1,2.7-6.1,6.1c0,3.3,2.7,6.1,6.1,6.1s6.1-2.7,6.1-6.1C34.9,25.5,32.2,22.8,28.8,22.8z"/>
</g>
<g id="_x30_8_zeit" display="none">
	<g display="inline">
		<path fill="none" d="M28.8,48.8c-11,0-20-9-20-20s9-20,20-20s20,9,20,20S39.9,48.8,28.8,48.8z M42.7,28.8l1.3-1.3
			c-0.6-7.3-6.5-13.2-13.8-13.8l-1.4,1.4l-1.4-1.4c-7.2,0.6-13,6.4-13.8,13.6l1.6,1.6l-1.6,1.6c0.7,7.2,6.5,12.9,13.7,13.6l1.5-1.5
			l1.5,1.5c7.3-0.7,13-6.6,13.7-13.8L42.7,28.8z M35.1,35.9c-0.4,0-0.8-0.1-1.2-0.4l-7.2-5.1V18.1c0-1.2,1-1.7,2.1-1.7
			c1.1,0,2.1,0.5,2.1,1.7v10.1l5.5,3.9c0.5,0.4,0.9,1,0.9,1.7C37.2,34.9,36.3,35.9,35.1,35.9z"/>
	</g>
</g>
<g id="_x30_7_teilnahme" display="none">
	<g display="inline">
		<path fill="none" d="M28.8,48.8c-11,0-20-9-20-20s9-20,20-20s20,9,20,20S39.9,48.8,28.8,48.8z M38,19.8c-0.2-0.2-0.4-0.3-0.7-0.3
			c-0.3,0-0.5,0.1-0.7,0.3L24.8,31.8L19.1,26c-0.2-0.2-0.4-0.3-0.7-0.3c-0.3,0-0.5,0.1-0.7,0.3c-0.5,0.5-2.3,1.8-2.3,2.7
			c0,0.3,0.1,0.5,0.3,0.7l6.3,6.4c0.3,0.4,1.9,2.3,2.7,2.3c0.2,0,0.5-0.1,0.6-0.3L40,23.1c0.2-0.2,0.3-0.4,0.3-0.7
			C40.3,21.7,38.5,20.3,38,19.8z"/>
	</g>
</g>
<g id="_x30_6_teilnehmer" display="none">
	<path display="inline" fill="none" d="M49.2,28.8c0,11.2-9.1,20.3-20.3,20.3S8.5,40.1,8.5,28.8S17.6,8.5,28.8,8.5
		S49.2,17.6,49.2,28.8z M41.3,27.8c1.2-1,2.1-3,2.1-4.7c0-2.4-1.7-4.1-3.5-4.1c-1.7,0-3.5,1.6-3.5,3.9c0,1.7,0.8,3.8,2,4.8
		c0,0,0.1,0.1,0.1,0.1h-0.1c-0.3,0.8-1.4,1.2-3.6,1.8C34,30,34,30.2,34.1,30.5c0.3,0.7,1.4,1,3.5,1.6l0.5,0.1
		c1.6,0.5,2.2,1.3,2.5,2.2H48c0-1.5,0.5-3.6-2.5-4.5C42.9,29.1,41.6,28.8,41.3,27.8z M40.5,39.4c0-1,0.1-2-0.3-3h0
		c-0.4-1-1.3-1.9-3.1-2.4l-0.7-0.2c-3.6-1-5.4-1.6-5.8-3.1l-0.1-0.2l0.2-0.2c0.1-0.1,0.2-0.2,0.3-0.3c1.5-1.6,2.7-4.2,2.7-6.4
		c0-3.4-2.5-5.6-4.7-5.6c-2.9,0-4.9,2.8-4.9,5.5c0,2.1,0.9,4.6,2.2,6.2c0.2,0.2,0.4,0.4,0.6,0.7c0.1,0.1,0.1,0.1,0.1,0.1l0,0.4
		L26.7,31c-0.6,1.2-2.3,1.8-5.6,2.7l-0.7,0.2c-1.9,0.5-2.7,1.4-3,2.4c-0.3,0.9-0.2,1.8-0.1,2.7c0,0.3,0,0.5,0.1,0.7h23.1
		C40.4,39.7,40.4,39.5,40.5,39.4z M12.1,29.9c-3,0.9-2.5,3-2.5,4.5h7.4c0.3-0.9,0.9-1.7,2.5-2.2l0.5-0.1c2.1-0.6,3.2-0.9,3.5-1.6
		c-0.1-0.3,0.1-0.7-0.6-0.8c-2.2-0.7-3.4-1-3.6-1.8h-0.1c0,0,0.1-0.1,0.1-0.1c1.1-1.1,2-3.1,2-4.8c0-2.4-1.8-3.9-3.5-3.9
		c-1.7,0-3.5,1.7-3.5,4.1c0,1.7,0.9,3.7,2.1,4.7C16.1,28.8,14.8,29.1,12.1,29.9z"/>
</g>
<g id="_x30_5_fragen" display="none">
	<g display="inline">
		<path fill="none" d="M28.8,48.8c-11.1,0-20-9-20-20s8.9-20,20-20c11,0,20,9,20,20S39.9,48.8,28.8,48.8z M29.1,17.1
			c-4,0-8.1,2-8.1,6.5V25l4.5,0v-1.2c0-1.9,1.8-2.6,3.4-2.6c1.7,0,3,1.3,3,3c0,3.7-5.8,4.2-5.8,9.2v1.4h4.5v-1.4
			c0-3.3,6.2-3.6,6.2-9.5C36.7,19.2,33.4,17.1,29.1,17.1z M28.3,36.6c-1.5,0-2.7,1.2-2.7,2.7s1.2,2.7,2.7,2.7s2.7-1.2,2.7-2.7
			S29.8,36.6,28.3,36.6z"/>
	</g>
</g>
<g id="_x30_4_admin" display="none">
	<g display="inline">
	</g>
</g>
<g id="_x30_3_bearbeiten" display="none">
	<g display="inline">
		<path fill="none" d="M48.9,29c0,11-9,20-20,20c-11.1,0-20-9-20-20c0-11,8.9-20,20-20c4.7,0,9.3,1.7,12.9,4.8l-3.4,3.4
			c-2.7-2.2-6.1-3.4-9.5-3.4c-8.4,0-15.2,6.8-15.2,15.2c0,8.4,6.8,15.2,15.2,15.2c6.1,0,11.6-3.7,14-9.3L48.9,29L48.9,29z
			 M57.3,16.9L40,33.9l0,0l-9.5,2.3l1.2-4.8H21.6c-1,0-1.5-1.1-1.5-2c0-0.9,0.5-2,1.5-2h11l0.2-0.6l0,0l1.8-1.7H21.6
			c-1,0-1.5-1.1-1.5-2s0.5-2,1.5-2h17L50.2,9.7L57.3,16.9z M26.5,37.9h-4.9c-1,0-1.5-1.1-1.5-2s0.5-2,1.5-2h4.9c1,0,1.5,1.1,1.5,2
			S27.5,37.9,26.5,37.9z"/>
	</g>
</g>
<g id="_x30_2_apotheke" display="none">
	<g display="inline">
		<g>
			<path fill="none" d="M28.8,48.8c-11,0-20-9-20-20s9-20,20-20s20,9,20,20S39.9,48.8,28.8,48.8z M28.8,9.8c-10.5,0-19,8.5-19,19
				c0,10.5,8.5,19,19,19c10.5,0,19-8.5,19-19C47.9,18.3,39.3,9.8,28.8,9.8z"/>
		</g>
		<g>
		</g>
	</g>
</g>
<g id="_x30_1_notfall" display="none">
	<g display="inline">
		<path fill="none" d="M28.8,48.8c-11,0-20-9-20-20s9-20,20-20c11.1,0,20,9,20,20S39.9,48.8,28.8,48.8z M35.8,32.9
			c-1.4,0-1.8,1.9-3.2,1.9c-1.2,0-1.9-1.7-2.5-2.6c-0.9-1.5-1.9-3-2.9-4.5c-0.6-0.9-1.6-1.9-1.6-3c0-2.1,3.5-1.4,3.5-3.5
			c0-1.3-2.3-6.3-3.8-6.2l-0.2,0l0.2,0l-0.7,0.1l0.5-0.1c-1.6,0.2-3.4,1.6-4.5,2.9c-0.7,0.9-1,2-1,3.2c0,6.1,6.2,15,10.8,18.6
			c-0.1,0.2-0.8,1.3-1.1,1.3c-0.5,0-0.9-2.1-2.6-2.1c-1.7,0-2.1,2.1-2.6,2.1c-0.5,0-0.9-2.1-2.6-2.1c-1.7,0-2.1,2.1-2.6,2.1
			c-0.5,0-0.9-2.1-2.6-2.1c-1,0-1.5,0.7-2,1.4l1.3,0.8c0.1-0.2,0.4-0.7,0.6-0.7c0.5,0,0.9,2.1,2.6,2.1c1.7,0,2.1-2.1,2.6-2.1
			c0.5,0,0.9,2.1,2.6,2.1c1.7,0,2.1-2.1,2.6-2.1c0.5,0,0.9,2.1,2.6,2.1c1.1,0,1.8-1.2,2.3-2c1.1,0.7,2.4,1.2,3.7,1.2
			c1.5,0,5.3-1.9,5.3-3.5C40.8,37.3,37,32.9,35.8,32.9z"/>
	</g>
</g>
</svg>
