<?xml version="1.0" encoding="utf-8"?>
<!-- Generator: Adobe Illustrator 18.1.0, SVG Export Plug-In . SVG Version: 6.00 Build 0)  -->
<!DOCTYPE svg PUBLIC "-//W3C//DTD SVG 1.1//EN" "http://www.w3.org/Graphics/SVG/1.1/DTD/svg11.dtd">
<svg version="1.1" xmlns="http://www.w3.org/2000/svg" xmlns:xlink="http://www.w3.org/1999/xlink" x="0px" y="0px"
	 viewBox="0 0 122 61" enable-background="new 0 0 122 61" xml:space="preserve">
<g id="teilnehmen">
	<g>
		<path fill="#FB6F71" d="M61.1,60.8H0.2V-0.1h60.9V60.8z M50.2,20.3l-3.4-3.5c-0.3-0.3-0.7-0.4-1.2-0.4c-0.4,0-0.8,0.1-1.1,0.4
			L24,37.5l-9.8-9.8c-0.3-0.3-0.7-0.5-1.1-0.5c-0.4,0-0.9,0.2-1.2,0.5l-3.4,3.4C8.2,31.3,8,31.8,8,32.2c0,0.4,0.2,0.8,0.5,1.1
			l10.9,11l0,0c1,1,2,1.9,2.9,2.9c0.5,0.5,0.9,1,1.7,1c0.4,0,0.8-0.2,1.1-0.5l25.2-25.2c0.3-0.3,0.5-0.7,0.5-1.2
			S50.5,20.6,50.2,20.3z"/>
	</g>
	<g>
		<path fill="#535A6B" d="M122.1,60.8H61.2V-0.1h60.9V60.8z M106.8,18.6l-3.4-3.4c-0.3-0.3-0.7-0.4-1.1-0.4c-0.4,0-0.8,0.1-1.1,0.4
			l-9.5,9.5l-9.5-9.5c-0.3-0.3-0.7-0.4-1.1-0.4c-0.4,0-0.8,0.1-1.1,0.4l-3.4,3.4c-0.3,0.3-0.4,0.7-0.4,1.1s0.1,0.8,0.4,1.1l9.5,9.5
			l-9.5,9.5c-0.3,0.3-0.4,0.7-0.4,1.1c0,0.4,0.1,0.8,0.4,1.1l3.4,3.4c0.3,0.3,0.7,0.4,1.1,0.4c0.4,0,0.8-0.1,1.1-0.4l9.5-9.5
			l9.5,9.5c0.3,0.3,0.7,0.4,1.1,0.4c0.4,0,0.8-0.1,1.1-0.4l3.4-3.4c0.3-0.3,0.4-0.7,0.4-1.1c0-0.4-0.1-0.8-0.4-1.1l-9.5-9.5l9.5-9.5
			c0.3-0.3,0.4-0.7,0.4-1.1S107.1,18.9,106.8,18.6z"/>
	</g>
</g>
<g id="nicht" display="none">
	<g display="inline">
		<path fill="#535A6B" d="M60.8,61H-0.1V0.1h60.9V61z M49.9,20.5L46.5,17c-0.3-0.3-0.7-0.4-1.2-0.4s-0.8,0.1-1.1,0.4L23.6,37.6
			l-9.8-9.8c-0.3-0.3-0.7-0.5-1.1-0.5c-0.4,0-0.9,0.2-1.2,0.5l-3.4,3.4c-0.3,0.3-0.5,0.7-0.5,1.2c0,0.4,0.2,0.8,0.5,1.1l10.9,11l0,0
			c1,1,2,1.9,2.9,2.9c0.5,0.5,0.9,1,1.7,1c0.4,0,0.8-0.2,1.1-0.5l25.2-25.2c0.3-0.3,0.5-0.7,0.5-1.2S50.2,20.8,49.9,20.5z"/>
	</g>
	<g display="inline">
		<path fill="#FB6F71" d="M121.8,61H60.9V0.1h60.9V61z M106.5,18.8l-3.4-3.4c-0.3-0.3-0.7-0.4-1.1-0.4c-0.4,0-0.8,0.1-1.1,0.4
			l-9.5,9.5l-9.5-9.5c-0.3-0.3-0.7-0.4-1.1-0.4s-0.8,0.1-1.1,0.4l-3.4,3.4c-0.3,0.3-0.4,0.7-0.4,1.1s0.1,0.8,0.4,1.1l9.5,9.5
			l-9.5,9.5c-0.3,0.3-0.4,0.7-0.4,1.1c0,0.4,0.1,0.8,0.4,1.1l3.4,3.4c0.3,0.3,0.7,0.4,1.1,0.4s0.8-0.1,1.1-0.4l9.5-9.5l9.5,9.5
			c0.3,0.3,0.7,0.4,1.1,0.4c0.4,0,0.8-0.1,1.1-0.4l3.4-3.4c0.3-0.3,0.4-0.7,0.4-1.1c0-0.4-0.1-0.8-0.4-1.1l-9.5-9.5l9.5-9.5
			c0.3-0.3,0.4-0.7,0.4-1.1S106.8,19,106.5,18.8z"/>
	</g>
</g>
</svg>
