<?xml version="1.0" encoding="utf-8"?>
<!-- Generator: Adobe Illustrator 18.1.0, SVG Export Plug-In . SVG Version: 6.00 Build 0)  -->
<!DOCTYPE svg PUBLIC "-//W3C//DTD SVG 1.1//EN" "http://www.w3.org/Graphics/SVG/1.1/DTD/svg11.dtd">
<svg version="1.1" xmlns="http://www.w3.org/2000/svg" xmlns:xlink="http://www.w3.org/1999/xlink" x="0px" y="0px"
	 viewBox="0 0 41 41" enable-background="new 0 0 41 41" xml:space="preserve">
<g id="_x31_2_mehr_Infos" display="none">
	<g display="inline">
		<path fill="#4C4C4C" d="M20.5,40.5c-11,0-20-9-20-20s9-20,20-20s20,9,20,20S31.5,40.5,20.5,40.5z M20.5,5.3
			c-8.4,0-15.2,6.8-15.2,15.2s6.8,15.2,15.2,15.2s15.2-6.8,15.2-15.2S28.9,5.3,20.5,5.3z M27.8,16.5H13.2c-1,0-1.5-1.1-1.5-2
			s0.5-2,1.5-2h14.5c1,0,1.5,1.1,1.5,2S28.8,16.5,27.8,16.5z M27.8,22.9H13.2c-1,0-1.5-1.1-1.5-2s0.5-2,1.5-2h14.5
			c1,0,1.5,1.1,1.5,2S28.8,22.9,27.8,22.9z M27.8,29.3H13.2c-1,0-1.5-1.1-1.5-2s0.5-2,1.5-2h14.5c1,0,1.5,1.1,1.5,2
			S28.8,29.3,27.8,29.3z"/>
	</g>
</g>
<g id="_x31_1_infos" display="none">
	<g display="inline">
		<path fill="#4C4C4C" d="M20,41C9,41,0,32,0,21S9,1,20,1s20,9,20,20S31,41,20,41z M25.1,31.9c-0.6,0.3-1.6,0.5-2.2,0.5
			c-1.4,0-2.1-0.3-2.1-1.8c0-3.4,2.4-7.1,2.4-10.8c0-2.7-2.2-3.8-4.6-3.8c-1.8,0-3.7,0.8-5.4,1.5l-0.4,1.6c0.7-0.3,1.5-0.5,2.3-0.5
			c1.4,0,2,0.3,2,1.8c0,3.4-2.4,7.2-2.4,10.9c0,2.7,2.2,3.8,4.6,3.8c1.9,0,3.6-0.8,5.4-1.5L25.1,31.9z M21.9,6.2
			c-1.9,0-3.6,1.4-3.6,3.4s1.7,3.3,3.6,3.3s3.6-1.4,3.6-3.3S23.8,6.2,21.9,6.2z"/>
	</g>
</g>
<g id="_x31_0_hinweise" display="none">
	<g display="inline">
		<path fill="#4C4C4C" d="M20.5,40.5c-11,0-20-9-20-20s9-20,20-20s20,9,20,20S31.5,40.5,20.5,40.5z M22.8,11.1c0-1.3-1-2.3-2.3-2.3
			s-2.3,1.1-2.3,2.3v10.8c0,1.3,1,2.3,2.3,2.3s2.3-1,2.3-2.3V11.1z M20.5,27.2c-1.3,0-2.3,1-2.3,2.3s1,2.3,2.3,2.3s2.3-1,2.3-2.3
			S21.8,27.2,20.5,27.2z"/>
	</g>
</g>
<g id="_x30_9_treffpunkt" display="none">
	<path display="inline" fill="#4C4C4C" d="M20.5,40.5c-11,0-20-9-20-20s9-20,20-20s20,9,20,20S31.5,40.5,20.5,40.5z M21.5,5.9
		c0-0.6-0.5-1.1-1-1.1c-0.6,0-1.1,0.5-1.1,1.1v3.2c0,0.6,0.5,1.1,1.1,1.1c0.6,0,1-0.5,1-1.1V5.9z M21.5,31.9c0-0.6-0.5-1.1-1-1.1
		c-0.6,0-1.1,0.5-1.1,1.1v3.2c0,0.6,0.5,1,1.1,1c0.6,0,1-0.5,1-1V31.9z M34.6,21.5c0.6,0,1.1-0.5,1.1-1.1c0-0.6-0.5-1-1-1l-3.2,0
		c-0.6,0-1,0.5-1.1,1.1s0.4,1,1,1L34.6,21.5z M9,21.5c0.6,0,1.1-0.5,1.1-1.1c0-0.6-0.5-1-1-1l-3.2,0c-0.6,0-1,0.5-1.1,1.1
		c0,0.6,0.4,1,1,1L9,21.5z M20.5,14.4c-3.3,0-6.1,2.7-6.1,6.1s2.7,6.1,6.1,6.1s6.1-2.7,6.1-6.1S23.8,14.4,20.5,14.4z"/>
</g>
<g id="_x30_8_zeit" display="none">
	<g display="inline">
		<path fill="#4C4C4C" d="M20.5,40.5c-11,0-20-9-20-20s9-20,20-20s20,9,20,20S31.5,40.5,20.5,40.5z M34.3,20.5l1.3-1.3
			C35,11.9,29.2,6,21.9,5.4l-1.4,1.4l-1.4-1.4C11.9,6,6.1,11.7,5.4,18.9l1.6,1.6l-1.6,1.6c0.7,7.2,6.5,12.9,13.7,13.6l1.5-1.5
			l1.5,1.5c7.3-0.7,13-6.6,13.7-13.8L34.3,20.5z M26.8,27.5c-0.4,0-0.8-0.1-1.2-0.4L18.4,22V9.8c0-1.2,1-1.7,2.1-1.7
			c1.1,0,2.1,0.5,2.1,1.7v10.1l5.5,3.9c0.5,0.4,0.9,1,0.9,1.7C28.9,26.6,27.9,27.5,26.8,27.5z"/>
	</g>
</g>
<g id="_x30_7_teilnahme">
	<g>
		<path fill="#4C4C4C" d="M20.5,40.5c-11,0-20-9-20-20s9-20,20-20s20,9,20,20S31.5,40.5,20.5,40.5z M29.7,11.5
			c-0.2-0.2-0.4-0.3-0.7-0.3c-0.3,0-0.5,0.1-0.7,0.3L16.4,23.4l-5.7-5.7c-0.2-0.2-0.4-0.3-0.7-0.3c-0.3,0-0.5,0.1-0.7,0.3
			c-0.5,0.5-2.3,1.8-2.3,2.7c0,0.3,0.1,0.5,0.3,0.7l6.3,6.4c0.3,0.4,1.9,2.3,2.7,2.3c0.2,0,0.5-0.1,0.6-0.3l14.6-14.6
			c0.2-0.2,0.3-0.4,0.3-0.7C31.9,13.3,30.1,12,29.7,11.5z"/>
	</g>
</g>
<g id="_x30_6_teilnehmer" display="none">
	<path display="inline" fill="#4C4C4C" d="M40.8,20.5c0,11.2-9.1,20.3-20.3,20.3S0.2,31.7,0.2,20.5S9.3,0.2,20.5,0.2
		S40.8,9.3,40.8,20.5z M33,19.5c1.2-1,2.1-3,2.1-4.7c0-2.4-1.7-4.1-3.5-4.1c-1.7,0-3.5,1.6-3.5,3.9c0,1.7,0.8,3.8,2,4.8
		c0,0,0.1,0.1,0.1,0.1H30c-0.3,0.8-1.4,1.2-3.6,1.8c-0.7,0.3-0.7,0.5-0.6,0.8c0.3,0.7,1.4,1,3.5,1.6l0.5,0.1
		c1.6,0.5,2.2,1.3,2.5,2.2h7.4c0-1.5,0.5-3.6-2.5-4.5C34.5,20.7,33.2,20.4,33,19.5z M32.1,31c0-1,0.1-2-0.3-3h0
		c-0.4-1-1.3-1.9-3.1-2.4L28,25.4c-3.6-1-5.4-1.6-5.8-3.1L22.1,22l0.2-0.2c0.1-0.1,0.2-0.2,0.3-0.3c1.5-1.6,2.7-4.2,2.7-6.4
		c0-3.4-2.5-5.6-4.7-5.6c-2.9,0-4.9,2.8-4.9,5.5c0,2.1,0.9,4.6,2.2,6.2c0.2,0.2,0.4,0.4,0.6,0.7c0.1,0.1,0.1,0.1,0.1,0.1l0,0.4
		l-0.2,0.3c-0.6,1.2-2.3,1.8-5.6,2.7L12,25.6C10.2,26.1,9.3,27,9,28c-0.3,0.9-0.2,1.8-0.1,2.7c0,0.3,0,0.5,0.1,0.7h23.1
		C32.1,31.3,32.1,31.2,32.1,31z M3.8,21.5c-3,0.9-2.5,3-2.5,4.5h7.4c0.3-0.9,0.9-1.7,2.5-2.2l0.5-0.1c2.1-0.6,3.2-0.9,3.5-1.6
		c-0.1-0.3,0.1-0.7-0.6-0.8c-2.2-0.7-3.4-1-3.6-1.8h-0.1c0,0,0.1-0.1,0.1-0.1c1.1-1.1,2-3.1,2-4.8c0-2.4-1.8-3.9-3.5-3.9
		c-1.7,0-3.5,1.7-3.5,4.1c0,1.7,0.9,3.7,2.1,4.7C7.8,20.4,6.5,20.7,3.8,21.5z"/>
</g>
<g id="_x30_5_fragen" display="none">
	<g display="inline">
		<path fill="#4C4C4C" d="M20.5,40.5c-11.1,0-20-9-20-20s8.9-20,20-20c11,0,20,9,20,20S31.5,40.5,20.5,40.5z M20.8,8.8
			c-4,0-8.1,2-8.1,6.5v1.4l4.5,0v-1.2c0-1.9,1.8-2.6,3.4-2.6c1.7,0,3,1.3,3,3c0,3.7-5.8,4.2-5.8,9.2v1.4h4.5V25
			c0-3.3,6.2-3.6,6.2-9.5C28.4,10.9,25,8.8,20.8,8.8z M20,28.3c-1.5,0-2.7,1.2-2.7,2.7s1.2,2.7,2.7,2.7s2.7-1.2,2.7-2.7
			S21.5,28.3,20,28.3z"/>
	</g>
</g>
<g id="_x30_4_admin" display="none">
	<g display="inline">
		<g>
			<path fill="#4C4C4C" d="M40.5,21.4c0,1.8-1.4,3.2-3.2,3.2h-2.1c-0.3,1.2-0.8,2.4-1.5,3.5c1.2,1.2,2.9,2.3,2.9,4.2
				c0,1.9-2.4,4.4-4.3,4.4c-1.9,0-3-1.7-4.2-2.9c-1.1,0.6-2.3,1.1-3.5,1.4v2.1c0,1.8-1.4,3.2-3.2,3.2h-1.6c-1.8,0-3.2-1.4-3.2-3.2
				v-2.1c-1.2-0.3-2.4-0.8-3.5-1.4c-1.2,1.2-2.4,2.9-4.2,2.9c-1.9,0-4.3-2.4-4.3-4.4c0-1.9,1.7-3,2.9-4.2c-0.6-1.1-1.1-2.3-1.5-3.5
				H3.7c-1.8,0-3.2-1.4-3.2-3.2v-1.6c0-1.8,1.4-3.2,3.2-3.2h2.1c0.3-1.2,0.8-2.4,1.4-3.5C6,11.9,4.4,10.8,4.4,8.9
				c0-1.9,2.4-4.3,4.3-4.3c1.8,0,2.9,1.6,4.1,2.8c1.2-0.7,2.4-1.2,3.7-1.5V3.7c0-1.8,1.4-3.2,3.2-3.2h1.6c1.8,0,3.2,1.4,3.2,3.2v2.2
				c1.3,0.4,2.5,0.8,3.6,1.5c1.2-1.2,2.3-2.8,4.1-2.8c1.9,0,4.3,2.4,4.3,4.3c0,1.9-1.6,3-2.8,4.2c0.6,1.1,1.1,2.3,1.4,3.5h2.1
				c1.8,0,3.2,1.4,3.2,3.2V21.4z M20.5,11.8c-4.9,0-8.8,4-8.8,8.8s4,8.8,8.8,8.8s8.8-3.9,8.8-8.8S25.4,11.8,20.5,11.8z M20.5,24.6
				c-2.2,0-4-1.8-4-4s1.8-4,4-4s4,1.8,4,4S22.7,24.6,20.5,24.6z"/>
		</g>
	</g>
</g>
<g id="_x30_3_bearbeiten" display="none">
	<g display="inline">
		<path fill="#4C4C4C" d="M40.6,20.7c0,11-9,20-20,20c-11.1,0-20-9-20-20c0-11,8.9-20,20-20c4.7,0,9.3,1.7,12.9,4.8l-3.4,3.4
			c-2.7-2.2-6.1-3.4-9.5-3.4c-8.4,0-15.2,6.8-15.2,15.2c0,8.4,6.8,15.2,15.2,15.2c6.1,0,11.6-3.7,14-9.3L40.6,20.7L40.6,20.7z
			 M49,8.5L31.6,25.6l0,0l-9.5,2.3l1.2-4.8H13.3c-1,0-1.5-1.1-1.5-2c0-0.9,0.5-2,1.5-2h11l0.2-0.6l0,0l1.8-1.7H13.3
			c-1,0-1.5-1.1-1.5-2s0.5-2,1.5-2h17L41.9,1.4L49,8.5z M18.2,29.5h-4.9c-1,0-1.5-1.1-1.5-2s0.5-2,1.5-2h4.9c1,0,1.5,1.1,1.5,2
			S19.2,29.5,18.2,29.5z"/>
	</g>
</g>
<g id="_x30_2_apotheke" display="none">
	<g display="inline">
		<g>
			<path fill="#05E29E" d="M20.5,40.5c-11,0-20-9-20-20s9-20,20-20s20,9,20,20S31.5,40.5,20.5,40.5z M20.5,1.5c-10.5,0-19,8.5-19,19
				c0,10.5,8.5,19,19,19c10.5,0,19-8.5,19-19C39.5,10,31,1.5,20.5,1.5z"/>
		</g>
		<g>
			<g>
				<rect x="17" y="10.1" fill="#05E29E" width="7" height="20.8"/>
				<rect x="10.1" y="17" fill="#05E29E" width="20.8" height="7"/>
			</g>
		</g>
	</g>
</g>
<g id="_x30_1_notfall" display="none">
	<g display="inline">
		<path fill="#FB6F71" d="M20.5,40.5c-11,0-20-9-20-20s9-20,20-20c11.1,0,20,9,20,20S31.6,40.5,20.5,40.5z M27.5,24.6
			c-1.4,0-1.8,1.9-3.2,1.9c-1.2,0-1.9-1.7-2.5-2.6c-0.9-1.5-1.9-3-2.9-4.5c-0.6-0.9-1.6-1.9-1.6-3c0-2.1,3.5-1.4,3.5-3.5
			c0-1.3-2.3-6.3-3.8-6.2l-0.2,0l0.2,0l-0.7,0.1l0.5-0.1c-1.6,0.2-3.4,1.6-4.5,2.9c-0.7,0.9-1,2-1,3.2c0,6.1,6.2,15,10.8,18.6
			c-0.1,0.2-0.8,1.3-1.1,1.3c-0.5,0-0.9-2.1-2.6-2.1c-1.7,0-2.1,2.1-2.6,2.1c-0.5,0-0.9-2.1-2.6-2.1c-1.7,0-2.1,2.1-2.6,2.1
			c-0.5,0-0.9-2.1-2.6-2.1c-1,0-1.5,0.7-2,1.4L7.6,33c0.1-0.2,0.4-0.7,0.6-0.7c0.5,0,0.9,2.1,2.6,2.1c1.7,0,2.1-2.1,2.6-2.1
			c0.5,0,0.9,2.1,2.6,2.1c1.7,0,2.1-2.1,2.6-2.1c0.5,0,0.9,2.1,2.6,2.1c1.1,0,1.8-1.2,2.3-2c1.1,0.7,2.4,1.2,3.7,1.2
			c1.5,0,5.3-1.9,5.3-3.5C32.5,29,28.7,24.6,27.5,24.6z"/>
	</g>
</g>
</svg>
