<?xml version="1.0" encoding="UTF-8" standalone="no"?>
<!DOCTYPE svg PUBLIC "-//W3C//DTD SVG 1.1//EN"
 "http://www.w3.org/Graphics/SVG/1.1/DTD/svg11.dtd">
<!-- Generated by graphviz version 2.28.0 (20111028.1807)
 -->
<!-- Title: controllers_diagram Pages: 1 -->
<svg width="507pt" height="624pt"
 viewBox="0.00 0.00 506.63 624.24" xmlns="http://www.w3.org/2000/svg" xmlns:xlink="http://www.w3.org/1999/xlink">
<g id="graph1" class="graph" transform="scale(1 1) rotate(0) translate(4 620.244)">
<title>controllers_diagram</title>
<polygon fill="white" stroke="white" points="-4,5 -4,-620.244 503.63,-620.244 503.63,5 -4,5"/>
<!-- _diagram_info -->
<g id="node1" class="node"><title>_diagram_info</title>
<text text-anchor="start" x="277.949" y="-159" font-family="Times,serif" font-size="13.00">Controllers diagram</text>
<text text-anchor="start" x="277.949" y="-143.4" font-family="Times,serif" font-size="13.00">Date: Mar 15 2014 &#45; 10:36</text>
<text text-anchor="start" x="277.949" y="-127.8" font-family="Times,serif" font-size="13.00">Migration version: 20140301112219</text>
<text text-anchor="start" x="277.949" y="-112.2" font-family="Times,serif" font-size="13.00">Generated by RailRoady 1.1.1</text>
<text text-anchor="start" x="277.949" y="-96.6" font-family="Times,serif" font-size="13.00">http://railroady.prestonlee.com</text>
</g>
<!-- ApplicationController -->
<g id="node2" class="node"><title>ApplicationController</title>
<polyline fill="none" stroke="black" points="149.273,-276.344 264.915,-276.344 "/>
<path fill="none" stroke="black" d="M264.915,-276.344C270.915,-276.344 276.915,-282.344 276.915,-288.344"/>
<polyline fill="none" stroke="black" points="276.915,-288.344 276.915,-361.944 "/>
<path fill="none" stroke="black" d="M276.915,-361.944C276.915,-367.944 270.915,-373.944 264.915,-373.944"/>
<polyline fill="none" stroke="black" points="264.915,-373.944 149.273,-373.944 "/>
<path fill="none" stroke="black" d="M149.273,-373.944C143.273,-373.944 137.273,-367.944 137.273,-361.944"/>
<polyline fill="none" stroke="black" points="137.273,-361.944 137.273,-288.344 "/>
<path fill="none" stroke="black" d="M137.273,-288.344C137.273,-282.344 143.273,-276.344 149.273,-276.344"/>
<text text-anchor="middle" x="207.094" y="-355.944" font-family="Times,serif" font-size="14.00">ApplicationController</text>
<polyline fill="none" stroke="black" points="137.273,-349.144 276.915,-349.144 "/>
<polyline fill="none" stroke="black" points="137.273,-325.144 276.915,-325.144 "/>
<polyline fill="none" stroke="black" points="137.273,-301.144 276.915,-301.144 "/>
<text text-anchor="start" x="145.273" y="-283.144" font-family="Times,serif" font-size="14.00">_layout</text>
</g>
<!-- AttendancesController -->
<g id="node3" class="node"><title>AttendancesController</title>
<polyline fill="none" stroke="black" points="368.076,-242.944 486.814,-242.944 "/>
<path fill="none" stroke="black" d="M486.814,-242.944C492.814,-242.944 498.814,-248.944 498.814,-254.944"/>
<polyline fill="none" stroke="black" points="498.814,-254.944 498.814,-463.744 "/>
<path fill="none" stroke="black" d="M498.814,-463.744C498.814,-469.744 492.814,-475.744 486.814,-475.744"/>
<polyline fill="none" stroke="black" points="486.814,-475.744 368.076,-475.744 "/>
<path fill="none" stroke="black" d="M368.076,-475.744C362.076,-475.744 356.076,-469.744 356.076,-463.744"/>
<polyline fill="none" stroke="black" points="356.076,-463.744 356.076,-254.944 "/>
<path fill="none" stroke="black" d="M356.076,-254.944C356.076,-248.944 362.076,-242.944 368.076,-242.944"/>
<text text-anchor="middle" x="427.445" y="-457.744" font-family="Times,serif" font-size="14.00">AttendancesController</text>
<polyline fill="none" stroke="black" points="356.076,-450.944 498.814,-450.944 "/>
<text text-anchor="start" x="364.076" y="-432.944" font-family="Times,serif" font-size="14.00">create</text>
<text text-anchor="start" x="364.076" y="-416.144" font-family="Times,serif" font-size="14.00">destroy</text>
<text text-anchor="start" x="364.076" y="-399.344" font-family="Times,serif" font-size="14.00">edit</text>
<text text-anchor="start" x="364.076" y="-382.544" font-family="Times,serif" font-size="14.00">index</text>
<text text-anchor="start" x="364.076" y="-365.744" font-family="Times,serif" font-size="14.00">new</text>
<text text-anchor="start" x="364.076" y="-348.944" font-family="Times,serif" font-size="14.00">show</text>
<text text-anchor="start" x="364.076" y="-332.144" font-family="Times,serif" font-size="14.00">update</text>
<polyline fill="none" stroke="black" points="356.076,-325.344 498.814,-325.344 "/>
<polyline fill="none" stroke="black" points="356.076,-301.344 498.814,-301.344 "/>
<text text-anchor="start" x="364.076" y="-283.344" font-family="Times,serif" font-size="14.00">_layout</text>
<text text-anchor="start" x="364.076" y="-266.544" font-family="Times,serif" font-size="14.00">attendance_params</text>
<text text-anchor="start" x="364.076" y="-249.744" font-family="Times,serif" font-size="14.00">set_attendance</text>
</g>
<!-- ApplicationController&#45;&gt;AttendancesController -->
<g id="edge2" class="edge"><title>ApplicationController&#45;&gt;AttendancesController</title>
<path fill="none" stroke="black" d="M277.117,-336.012C302.195,-339.904 330.488,-344.296 355.709,-348.21"/>
</g>
<!-- UsersController -->
<g id="node4" class="node"><title>UsersController</title>
<polyline fill="none" stroke="black" points="86.8818,-0.5 168.309,-0.5 "/>
<path fill="none" stroke="black" d="M168.309,-0.5C174.309,-0.5 180.309,-6.5 180.309,-12.5"/>
<polyline fill="none" stroke="black" points="180.309,-12.5 180.309,-221.3 "/>
<path fill="none" stroke="black" d="M180.309,-221.3C180.309,-227.3 174.309,-233.3 168.309,-233.3"/>
<polyline fill="none" stroke="black" points="168.309,-233.3 86.8818,-233.3 "/>
<path fill="none" stroke="black" d="M86.8818,-233.3C80.8818,-233.3 74.8818,-227.3 74.8818,-221.3"/>
<polyline fill="none" stroke="black" points="74.8818,-221.3 74.8818,-12.5 "/>
<path fill="none" stroke="black" d="M74.8818,-12.5C74.8818,-6.5 80.8818,-0.5 86.8818,-0.5"/>
<text text-anchor="middle" x="127.596" y="-215.3" font-family="Times,serif" font-size="14.00">UsersController</text>
<polyline fill="none" stroke="black" points="74.8818,-208.5 180.309,-208.5 "/>
<text text-anchor="start" x="82.8818" y="-190.5" font-family="Times,serif" font-size="14.00">create</text>
<text text-anchor="start" x="82.8818" y="-173.7" font-family="Times,serif" font-size="14.00">destroy</text>
<text text-anchor="start" x="82.8818" y="-156.9" font-family="Times,serif" font-size="14.00">edit</text>
<text text-anchor="start" x="82.8818" y="-140.1" font-family="Times,serif" font-size="14.00">index</text>
<text text-anchor="start" x="82.8818" y="-123.3" font-family="Times,serif" font-size="14.00">new</text>
<text text-anchor="start" x="82.8818" y="-106.5" font-family="Times,serif" font-size="14.00">show</text>
<text text-anchor="start" x="82.8818" y="-89.7" font-family="Times,serif" font-size="14.00">update</text>
<polyline fill="none" stroke="black" points="74.8818,-82.9 180.309,-82.9 "/>
<polyline fill="none" stroke="black" points="74.8818,-58.9 180.309,-58.9 "/>
<text text-anchor="start" x="82.8818" y="-40.9" font-family="Times,serif" font-size="14.00">_layout</text>
<text text-anchor="start" x="82.8818" y="-24.1" font-family="Times,serif" font-size="14.00">set_user</text>
<text text-anchor="start" x="82.8818" y="-7.3" font-family="Times,serif" font-size="14.00">user_params</text>
</g>
<!-- ApplicationController&#45;&gt;UsersController -->
<g id="edge4" class="edge"><title>ApplicationController&#45;&gt;UsersController</title>
<path fill="none" stroke="black" d="M188.455,-276.32C183.453,-263.216 177.822,-248.467 172.057,-233.366"/>
</g>
<!-- WorkshopsController -->
<g id="node5" class="node"><title>WorkshopsController</title>
<polyline fill="none" stroke="black" points="11.9492,-382.944 124.152,-382.944 "/>
<path fill="none" stroke="black" d="M124.152,-382.944C130.152,-382.944 136.152,-388.944 136.152,-394.944"/>
<polyline fill="none" stroke="black" points="136.152,-394.944 136.152,-603.744 "/>
<path fill="none" stroke="black" d="M136.152,-603.744C136.152,-609.744 130.152,-615.744 124.152,-615.744"/>
<polyline fill="none" stroke="black" points="124.152,-615.744 11.9492,-615.744 "/>
<path fill="none" stroke="black" d="M11.9492,-615.744C5.94922,-615.744 -0.0507812,-609.744 -0.0507812,-603.744"/>
<polyline fill="none" stroke="black" points="-0.0507812,-603.744 -0.0507812,-394.944 "/>
<path fill="none" stroke="black" d="M-0.0507812,-394.944C-0.0507812,-388.944 5.94922,-382.944 11.9492,-382.944"/>
<text text-anchor="middle" x="68.0508" y="-597.744" font-family="Times,serif" font-size="14.00">WorkshopsController</text>
<polyline fill="none" stroke="black" points="-0.0507812,-590.944 136.152,-590.944 "/>
<text text-anchor="start" x="7.94922" y="-572.944" font-family="Times,serif" font-size="14.00">create</text>
<text text-anchor="start" x="7.94922" y="-556.144" font-family="Times,serif" font-size="14.00">destroy</text>
<text text-anchor="start" x="7.94922" y="-539.344" font-family="Times,serif" font-size="14.00">edit</text>
<text text-anchor="start" x="7.94922" y="-522.544" font-family="Times,serif" font-size="14.00">index</text>
<text text-anchor="start" x="7.94922" y="-505.744" font-family="Times,serif" font-size="14.00">new</text>
<text text-anchor="start" x="7.94922" y="-488.944" font-family="Times,serif" font-size="14.00">show</text>
<text text-anchor="start" x="7.94922" y="-472.144" font-family="Times,serif" font-size="14.00">update</text>
<polyline fill="none" stroke="black" points="-0.0507812,-465.344 136.152,-465.344 "/>
<polyline fill="none" stroke="black" points="-0.0507812,-441.344 136.152,-441.344 "/>
<text text-anchor="start" x="7.94922" y="-423.344" font-family="Times,serif" font-size="14.00">_layout</text>
<text text-anchor="start" x="7.94922" y="-406.544" font-family="Times,serif" font-size="14.00">set_workshop</text>
<text text-anchor="start" x="7.94922" y="-389.744" font-family="Times,serif" font-size="14.00">workshop_params</text>
</g>
<!-- ApplicationController&#45;&gt;WorkshopsController -->
<g id="edge6" class="edge"><title>ApplicationController&#45;&gt;WorkshopsController</title>
<path fill="none" stroke="black" d="M167.993,-374.132C158.113,-386.51 147.212,-400.167 136.351,-413.774"/>
</g>
</g>
</svg>
