<?xml version="1.0" encoding="UTF-8" standalone="no"?>
<!DOCTYPE svg PUBLIC "-//W3C//DTD SVG 1.1//EN"
 "http://www.w3.org/Graphics/SVG/1.1/DTD/svg11.dtd">
<!-- Generated by graphviz version 2.28.0 (20111028.1807)
 -->
<!-- Title: controllers_diagram Pages: 1 -->
<svg width="754pt" height="682pt"
 viewBox="0.00 0.00 753.94 682.00" xmlns="http://www.w3.org/2000/svg" xmlns:xlink="http://www.w3.org/1999/xlink">
<g id="graph1" class="graph" transform="scale(1 1) rotate(0) translate(4 678)">
<title>controllers_diagram</title>
<polygon fill="white" stroke="white" points="-4,5 -4,-678 750.936,-678 750.936,5 -4,5"/>
<!-- _diagram_info -->
<g id="node1" class="node"><title>_diagram_info</title>
<text text-anchor="start" x="546.56" y="-657" font-family="Times,serif" font-size="13.00">Controllers diagram</text>
<text text-anchor="start" x="546.56" y="-641.4" font-family="Times,serif" font-size="13.00">Date: Mar 15 2014 &#45; 11:23</text>
<text text-anchor="start" x="546.56" y="-625.8" font-family="Times,serif" font-size="13.00">Migration version: 20140315100628</text>
<text text-anchor="start" x="546.56" y="-610.2" font-family="Times,serif" font-size="13.00">Generated by RailRoady 1.1.1</text>
<text text-anchor="start" x="546.56" y="-594.6" font-family="Times,serif" font-size="13.00">http://railroady.prestonlee.com</text>
</g>
<!-- ApplicationController -->
<g id="node2" class="node"><title>ApplicationController</title>
<polyline fill="none" stroke="black" points="234.803,-258.543 350.444,-258.543 "/>
<path fill="none" stroke="black" d="M350.444,-258.543C356.444,-258.543 362.444,-264.543 362.444,-270.543"/>
<polyline fill="none" stroke="black" points="362.444,-270.543 362.444,-344.143 "/>
<path fill="none" stroke="black" d="M362.444,-344.143C362.444,-350.143 356.444,-356.143 350.444,-356.143"/>
<polyline fill="none" stroke="black" points="350.444,-356.143 234.803,-356.143 "/>
<path fill="none" stroke="black" d="M234.803,-356.143C228.803,-356.143 222.803,-350.143 222.803,-344.143"/>
<polyline fill="none" stroke="black" points="222.803,-344.143 222.803,-270.543 "/>
<path fill="none" stroke="black" d="M222.803,-270.543C222.803,-264.543 228.803,-258.543 234.803,-258.543"/>
<text text-anchor="middle" x="292.624" y="-338.143" font-family="Times,serif" font-size="14.00">ApplicationController</text>
<polyline fill="none" stroke="black" points="222.803,-331.343 362.444,-331.343 "/>
<polyline fill="none" stroke="black" points="222.803,-307.343 362.444,-307.343 "/>
<polyline fill="none" stroke="black" points="222.803,-283.343 362.444,-283.343 "/>
<text text-anchor="start" x="230.803" y="-265.343" font-family="Times,serif" font-size="14.00">_layout</text>
</g>
<!-- AttendancesController -->
<g id="node3" class="node"><title>AttendancesController</title>
<polyline fill="none" stroke="black" points="377.697,-16.743 496.435,-16.743 "/>
<path fill="none" stroke="black" d="M496.435,-16.743C502.435,-16.743 508.435,-22.743 508.435,-28.743"/>
<polyline fill="none" stroke="black" points="508.435,-28.743 508.435,-237.543 "/>
<path fill="none" stroke="black" d="M508.435,-237.543C508.435,-243.543 502.435,-249.543 496.435,-249.543"/>
<polyline fill="none" stroke="black" points="496.435,-249.543 377.697,-249.543 "/>
<path fill="none" stroke="black" d="M377.697,-249.543C371.697,-249.543 365.697,-243.543 365.697,-237.543"/>
<polyline fill="none" stroke="black" points="365.697,-237.543 365.697,-28.743 "/>
<path fill="none" stroke="black" d="M365.697,-28.743C365.697,-22.743 371.697,-16.743 377.697,-16.743"/>
<text text-anchor="middle" x="437.066" y="-231.543" font-family="Times,serif" font-size="14.00">AttendancesController</text>
<polyline fill="none" stroke="black" points="365.697,-224.743 508.435,-224.743 "/>
<text text-anchor="start" x="373.697" y="-206.743" font-family="Times,serif" font-size="14.00">create</text>
<text text-anchor="start" x="373.697" y="-189.943" font-family="Times,serif" font-size="14.00">destroy</text>
<text text-anchor="start" x="373.697" y="-173.143" font-family="Times,serif" font-size="14.00">edit</text>
<text text-anchor="start" x="373.697" y="-156.343" font-family="Times,serif" font-size="14.00">index</text>
<text text-anchor="start" x="373.697" y="-139.543" font-family="Times,serif" font-size="14.00">new</text>
<text text-anchor="start" x="373.697" y="-122.743" font-family="Times,serif" font-size="14.00">show</text>
<text text-anchor="start" x="373.697" y="-105.943" font-family="Times,serif" font-size="14.00">update</text>
<polyline fill="none" stroke="black" points="365.697,-99.143 508.435,-99.143 "/>
<polyline fill="none" stroke="black" points="365.697,-75.143 508.435,-75.143 "/>
<text text-anchor="start" x="373.697" y="-57.143" font-family="Times,serif" font-size="14.00">_layout</text>
<text text-anchor="start" x="373.697" y="-40.343" font-family="Times,serif" font-size="14.00">attendance_params</text>
<text text-anchor="start" x="373.697" y="-23.543" font-family="Times,serif" font-size="14.00">set_attendance</text>
</g>
<!-- ApplicationController&#45;&gt;AttendancesController -->
<g id="edge2" class="edge"><title>ApplicationController&#45;&gt;AttendancesController</title>
<path fill="none" stroke="black" d="M333.243,-258.355C343.34,-246.178 354.463,-232.764 365.563,-219.377"/>
</g>
<!-- GroupsController -->
<g id="node4" class="node"><title>GroupsController</title>
<polyline fill="none" stroke="black" points="125.374,-0.5 216.139,-0.5 "/>
<path fill="none" stroke="black" d="M216.139,-0.5C222.139,-0.5 228.139,-6.5 228.139,-12.5"/>
<polyline fill="none" stroke="black" points="228.139,-12.5 228.139,-221.3 "/>
<path fill="none" stroke="black" d="M228.139,-221.3C228.139,-227.3 222.139,-233.3 216.139,-233.3"/>
<polyline fill="none" stroke="black" points="216.139,-233.3 125.374,-233.3 "/>
<path fill="none" stroke="black" d="M125.374,-233.3C119.374,-233.3 113.374,-227.3 113.374,-221.3"/>
<polyline fill="none" stroke="black" points="113.374,-221.3 113.374,-12.5 "/>
<path fill="none" stroke="black" d="M113.374,-12.5C113.374,-6.5 119.374,-0.5 125.374,-0.5"/>
<text text-anchor="middle" x="170.757" y="-215.3" font-family="Times,serif" font-size="14.00">GroupsController</text>
<polyline fill="none" stroke="black" points="113.374,-208.5 228.139,-208.5 "/>
<text text-anchor="start" x="121.374" y="-190.5" font-family="Times,serif" font-size="14.00">create</text>
<text text-anchor="start" x="121.374" y="-173.7" font-family="Times,serif" font-size="14.00">destroy</text>
<text text-anchor="start" x="121.374" y="-156.9" font-family="Times,serif" font-size="14.00">edit</text>
<text text-anchor="start" x="121.374" y="-140.1" font-family="Times,serif" font-size="14.00">index</text>
<text text-anchor="start" x="121.374" y="-123.3" font-family="Times,serif" font-size="14.00">new</text>
<text text-anchor="start" x="121.374" y="-106.5" font-family="Times,serif" font-size="14.00">show</text>
<text text-anchor="start" x="121.374" y="-89.7" font-family="Times,serif" font-size="14.00">update</text>
<polyline fill="none" stroke="black" points="113.374,-82.9 228.139,-82.9 "/>
<polyline fill="none" stroke="black" points="113.374,-58.9 228.139,-58.9 "/>
<text text-anchor="start" x="121.374" y="-40.9" font-family="Times,serif" font-size="14.00">_layout</text>
<text text-anchor="start" x="121.374" y="-24.1" font-family="Times,serif" font-size="14.00">group_params</text>
<text text-anchor="start" x="121.374" y="-7.3" font-family="Times,serif" font-size="14.00">set_group</text>
</g>
<!-- ApplicationController&#45;&gt;GroupsController -->
<g id="edge4" class="edge"><title>ApplicationController&#45;&gt;GroupsController</title>
<path fill="none" stroke="black" d="M261.24,-258.299C251.155,-242.539 239.645,-224.553 228.293,-206.813"/>
</g>
<!-- MembershipsController -->
<g id="node5" class="node"><title>MembershipsController</title>
<polyline fill="none" stroke="black" points="11.5603,-250.388 137.319,-250.388 "/>
<path fill="none" stroke="black" d="M137.319,-250.388C143.319,-250.388 149.319,-256.388 149.319,-262.388"/>
<polyline fill="none" stroke="black" points="149.319,-262.388 149.319,-471.188 "/>
<path fill="none" stroke="black" d="M149.319,-471.188C149.319,-477.188 143.319,-483.188 137.319,-483.188"/>
<polyline fill="none" stroke="black" points="137.319,-483.188 11.5603,-483.188 "/>
<path fill="none" stroke="black" d="M11.5603,-483.188C5.5603,-483.188 -0.439697,-477.188 -0.439697,-471.188"/>
<polyline fill="none" stroke="black" points="-0.439697,-471.188 -0.439697,-262.388 "/>
<path fill="none" stroke="black" d="M-0.439697,-262.388C-0.439697,-256.388 5.5603,-250.388 11.5603,-250.388"/>
<text text-anchor="middle" x="74.4397" y="-465.188" font-family="Times,serif" font-size="14.00">MembershipsController</text>
<polyline fill="none" stroke="black" points="-0.439697,-458.388 149.319,-458.388 "/>
<text text-anchor="start" x="7.5603" y="-440.388" font-family="Times,serif" font-size="14.00">create</text>
<text text-anchor="start" x="7.5603" y="-423.588" font-family="Times,serif" font-size="14.00">destroy</text>
<text text-anchor="start" x="7.5603" y="-406.788" font-family="Times,serif" font-size="14.00">edit</text>
<text text-anchor="start" x="7.5603" y="-389.988" font-family="Times,serif" font-size="14.00">index</text>
<text text-anchor="start" x="7.5603" y="-373.188" font-family="Times,serif" font-size="14.00">new</text>
<text text-anchor="start" x="7.5603" y="-356.388" font-family="Times,serif" font-size="14.00">show</text>
<text text-anchor="start" x="7.5603" y="-339.588" font-family="Times,serif" font-size="14.00">update</text>
<polyline fill="none" stroke="black" points="-0.439697,-332.788 149.319,-332.788 "/>
<polyline fill="none" stroke="black" points="-0.439697,-308.788 149.319,-308.788 "/>
<text text-anchor="start" x="7.5603" y="-290.788" font-family="Times,serif" font-size="14.00">_layout</text>
<text text-anchor="start" x="7.5603" y="-273.988" font-family="Times,serif" font-size="14.00">membership_params</text>
<text text-anchor="start" x="7.5603" y="-257.188" font-family="Times,serif" font-size="14.00">set_membership</text>
</g>
<!-- ApplicationController&#45;&gt;MembershipsController -->
<g id="edge6" class="edge"><title>ApplicationController&#45;&gt;MembershipsController</title>
<path fill="none" stroke="black" d="M222.689,-326.397C199.38,-332.748 173.322,-339.847 149.632,-346.302"/>
</g>
<!-- UsersController -->
<g id="node6" class="node"><title>UsersController</title>
<polyline fill="none" stroke="black" points="462.992,-272.987 544.42,-272.987 "/>
<path fill="none" stroke="black" d="M544.42,-272.987C550.42,-272.987 556.42,-278.987 556.42,-284.987"/>
<polyline fill="none" stroke="black" points="556.42,-284.987 556.42,-493.787 "/>
<path fill="none" stroke="black" d="M556.42,-493.787C556.42,-499.787 550.42,-505.787 544.42,-505.787"/>
<polyline fill="none" stroke="black" points="544.42,-505.787 462.992,-505.787 "/>
<path fill="none" stroke="black" d="M462.992,-505.787C456.992,-505.787 450.992,-499.787 450.992,-493.787"/>
<polyline fill="none" stroke="black" points="450.992,-493.787 450.992,-284.987 "/>
<path fill="none" stroke="black" d="M450.992,-284.987C450.992,-278.987 456.992,-272.987 462.992,-272.987"/>
<text text-anchor="middle" x="503.706" y="-487.787" font-family="Times,serif" font-size="14.00">UsersController</text>
<polyline fill="none" stroke="black" points="450.992,-480.987 556.42,-480.987 "/>
<text text-anchor="start" x="458.992" y="-462.987" font-family="Times,serif" font-size="14.00">create</text>
<text text-anchor="start" x="458.992" y="-446.187" font-family="Times,serif" font-size="14.00">destroy</text>
<text text-anchor="start" x="458.992" y="-429.387" font-family="Times,serif" font-size="14.00">edit</text>
<text text-anchor="start" x="458.992" y="-412.587" font-family="Times,serif" font-size="14.00">index</text>
<text text-anchor="start" x="458.992" y="-395.787" font-family="Times,serif" font-size="14.00">new</text>
<text text-anchor="start" x="458.992" y="-378.987" font-family="Times,serif" font-size="14.00">show</text>
<text text-anchor="start" x="458.992" y="-362.187" font-family="Times,serif" font-size="14.00">update</text>
<polyline fill="none" stroke="black" points="450.992,-355.387 556.42,-355.387 "/>
<polyline fill="none" stroke="black" points="450.992,-331.387 556.42,-331.387 "/>
<text text-anchor="start" x="458.992" y="-313.387" font-family="Times,serif" font-size="14.00">_layout</text>
<text text-anchor="start" x="458.992" y="-296.587" font-family="Times,serif" font-size="14.00">set_user</text>
<text text-anchor="start" x="458.992" y="-279.787" font-family="Times,serif" font-size="14.00">user_params</text>
</g>
<!-- ApplicationController&#45;&gt;UsersController -->
<g id="edge8" class="edge"><title>ApplicationController&#45;&gt;UsersController</title>
<path fill="none" stroke="black" d="M362.618,-334.548C391.42,-345.743 424.221,-358.492 450.943,-368.879"/>
</g>
<!-- WorkshopsController -->
<g id="node7" class="node"><title>WorkshopsController</title>
<polyline fill="none" stroke="black" points="225.853,-417.055 338.056,-417.055 "/>
<path fill="none" stroke="black" d="M338.056,-417.055C344.056,-417.055 350.056,-423.055 350.056,-429.055"/>
<polyline fill="none" stroke="black" points="350.056,-429.055 350.056,-637.855 "/>
<path fill="none" stroke="black" d="M350.056,-637.855C350.056,-643.855 344.056,-649.855 338.056,-649.855"/>
<polyline fill="none" stroke="black" points="338.056,-649.855 225.853,-649.855 "/>
<path fill="none" stroke="black" d="M225.853,-649.855C219.853,-649.855 213.853,-643.855 213.853,-637.855"/>
<polyline fill="none" stroke="black" points="213.853,-637.855 213.853,-429.055 "/>
<path fill="none" stroke="black" d="M213.853,-429.055C213.853,-423.055 219.853,-417.055 225.853,-417.055"/>
<text text-anchor="middle" x="281.955" y="-631.855" font-family="Times,serif" font-size="14.00">WorkshopsController</text>
<polyline fill="none" stroke="black" points="213.853,-625.055 350.056,-625.055 "/>
<text text-anchor="start" x="221.853" y="-607.055" font-family="Times,serif" font-size="14.00">create</text>
<text text-anchor="start" x="221.853" y="-590.255" font-family="Times,serif" font-size="14.00">destroy</text>
<text text-anchor="start" x="221.853" y="-573.455" font-family="Times,serif" font-size="14.00">edit</text>
<text text-anchor="start" x="221.853" y="-556.655" font-family="Times,serif" font-size="14.00">index</text>
<text text-anchor="start" x="221.853" y="-539.855" font-family="Times,serif" font-size="14.00">new</text>
<text text-anchor="start" x="221.853" y="-523.055" font-family="Times,serif" font-size="14.00">show</text>
<text text-anchor="start" x="221.853" y="-506.255" font-family="Times,serif" font-size="14.00">update</text>
<polyline fill="none" stroke="black" points="213.853,-499.455 350.056,-499.455 "/>
<polyline fill="none" stroke="black" points="213.853,-475.455 350.056,-475.455 "/>
<text text-anchor="start" x="221.853" y="-457.455" font-family="Times,serif" font-size="14.00">_layout</text>
<text text-anchor="start" x="221.853" y="-440.655" font-family="Times,serif" font-size="14.00">set_workshop</text>
<text text-anchor="start" x="221.853" y="-423.855" font-family="Times,serif" font-size="14.00">workshop_params</text>
</g>
<!-- ApplicationController&#45;&gt;WorkshopsController -->
<g id="edge10" class="edge"><title>ApplicationController&#45;&gt;WorkshopsController</title>
<path fill="none" stroke="black" d="M290.309,-356.406C289.463,-374.33 288.466,-395.454 287.461,-416.751"/>
</g>
</g>
</svg>
