<?xml version="1.0" encoding="UTF-8" standalone="no"?>
<!DOCTYPE svg PUBLIC "-//W3C//DTD SVG 1.1//EN"
 "http://www.w3.org/Graphics/SVG/1.1/DTD/svg11.dtd">
<!-- Generated by graphviz version 2.28.0 (20111028.1807)
 -->
<!-- Title: models_diagram Pages: 1 -->
<svg width="434pt" height="506pt"
 viewBox="0.00 0.00 434.00 506.00" xmlns="http://www.w3.org/2000/svg" xmlns:xlink="http://www.w3.org/1999/xlink">
<g id="graph1" class="graph" transform="scale(1 1) rotate(0) translate(4 502)">
<title>models_diagram</title>
<polygon fill="white" stroke="white" points="-4,5 -4,-502 431,-502 431,5 -4,5"/>
<!-- _diagram_info -->
<g id="node1" class="node"><title>_diagram_info</title>
<text text-anchor="start" x="7.78833" y="-481" font-family="Times,serif" font-size="13.00">Models diagram</text>
<text text-anchor="start" x="7.78833" y="-465.4" font-family="Times,serif" font-size="13.00">Date: Mar 15 2014 &#45; 10:36</text>
<text text-anchor="start" x="7.78833" y="-449.8" font-family="Times,serif" font-size="13.00">Migration version: 20140301112219</text>
<text text-anchor="start" x="7.78833" y="-434.2" font-family="Times,serif" font-size="13.00">Generated by RailRoady 1.1.1</text>
<text text-anchor="start" x="7.78833" y="-418.6" font-family="Times,serif" font-size="13.00">http://railroady.prestonlee.com</text>
</g>
<!-- Attendance -->
<g id="node2" class="node"><title>Attendance</title>
<polyline fill="none" stroke="black" points="105.315,-239.6 216.685,-239.6 "/>
<path fill="none" stroke="black" d="M216.685,-239.6C222.685,-239.6 228.685,-245.6 228.685,-251.6"/>
<polyline fill="none" stroke="black" points="228.685,-251.6 228.685,-344.4 "/>
<path fill="none" stroke="black" d="M228.685,-344.4C228.685,-350.4 222.685,-356.4 216.685,-356.4"/>
<polyline fill="none" stroke="black" points="216.685,-356.4 105.315,-356.4 "/>
<path fill="none" stroke="black" d="M105.315,-356.4C99.3154,-356.4 93.3154,-350.4 93.3154,-344.4"/>
<polyline fill="none" stroke="black" points="93.3154,-344.4 93.3154,-251.6 "/>
<path fill="none" stroke="black" d="M93.3154,-251.6C93.3154,-245.6 99.3154,-239.6 105.315,-239.6"/>
<text text-anchor="middle" x="161" y="-338.4" font-family="Times,serif" font-size="14.00">Attendance</text>
<polyline fill="none" stroke="black" points="93.3154,-331.6 228.685,-331.6 "/>
<text text-anchor="start" x="101.315" y="-313.6" font-family="Times,serif" font-size="14.00">id :integer</text>
<text text-anchor="start" x="101.315" y="-296.8" font-family="Times,serif" font-size="14.00">user_id :integer</text>
<text text-anchor="start" x="101.315" y="-280" font-family="Times,serif" font-size="14.00">workshop_id :integer</text>
<text text-anchor="start" x="101.315" y="-263.2" font-family="Times,serif" font-size="14.00">created_at :datetime</text>
<text text-anchor="start" x="101.315" y="-246.4" font-family="Times,serif" font-size="14.00">updated_at :datetime</text>
</g>
<!-- User -->
<g id="node3" class="node"><title>User</title>
<polyline fill="none" stroke="black" points="258.495,-222.8 367.505,-222.8 "/>
<path fill="none" stroke="black" d="M367.505,-222.8C373.505,-222.8 379.505,-228.8 379.505,-234.8"/>
<polyline fill="none" stroke="black" points="379.505,-234.8 379.505,-361.2 "/>
<path fill="none" stroke="black" d="M379.505,-361.2C379.505,-367.2 373.505,-373.2 367.505,-373.2"/>
<polyline fill="none" stroke="black" points="367.505,-373.2 258.495,-373.2 "/>
<path fill="none" stroke="black" d="M258.495,-373.2C252.495,-373.2 246.495,-367.2 246.495,-361.2"/>
<polyline fill="none" stroke="black" points="246.495,-361.2 246.495,-234.8 "/>
<path fill="none" stroke="black" d="M246.495,-234.8C246.495,-228.8 252.495,-222.8 258.495,-222.8"/>
<text text-anchor="middle" x="313" y="-355.2" font-family="Times,serif" font-size="14.00">User</text>
<polyline fill="none" stroke="black" points="246.495,-348.4 379.505,-348.4 "/>
<text text-anchor="start" x="254.495" y="-330.4" font-family="Times,serif" font-size="14.00">id :integer</text>
<text text-anchor="start" x="254.495" y="-313.6" font-family="Times,serif" font-size="14.00">name :string</text>
<text text-anchor="start" x="254.495" y="-296.8" font-family="Times,serif" font-size="14.00">firstname :string</text>
<text text-anchor="start" x="254.495" y="-280" font-family="Times,serif" font-size="14.00">email :string</text>
<text text-anchor="start" x="254.495" y="-263.2" font-family="Times,serif" font-size="14.00">password :string</text>
<text text-anchor="start" x="254.495" y="-246.4" font-family="Times,serif" font-size="14.00">created_at :datetime</text>
<text text-anchor="start" x="254.495" y="-229.6" font-family="Times,serif" font-size="14.00">updated_at :datetime</text>
</g>
<!-- Workshop -->
<g id="node4" class="node"><title>Workshop</title>
<polyline fill="none" stroke="black" points="305.495,-0.4 414.505,-0.4 "/>
<path fill="none" stroke="black" d="M414.505,-0.4C420.505,-0.4 426.505,-6.4 426.505,-12.4"/>
<polyline fill="none" stroke="black" points="426.505,-12.4 426.505,-155.6 "/>
<path fill="none" stroke="black" d="M426.505,-155.6C426.505,-161.6 420.505,-167.6 414.505,-167.6"/>
<polyline fill="none" stroke="black" points="414.505,-167.6 305.495,-167.6 "/>
<path fill="none" stroke="black" d="M305.495,-167.6C299.495,-167.6 293.495,-161.6 293.495,-155.6"/>
<polyline fill="none" stroke="black" points="293.495,-155.6 293.495,-12.4 "/>
<path fill="none" stroke="black" d="M293.495,-12.4C293.495,-6.4 299.495,-0.4 305.495,-0.4"/>
<text text-anchor="middle" x="360" y="-149.6" font-family="Times,serif" font-size="14.00">Workshop</text>
<polyline fill="none" stroke="black" points="293.495,-142.8 426.505,-142.8 "/>
<text text-anchor="start" x="301.495" y="-124.8" font-family="Times,serif" font-size="14.00">id :integer</text>
<text text-anchor="start" x="301.495" y="-108" font-family="Times,serif" font-size="14.00">owner_id :integer</text>
<text text-anchor="start" x="301.495" y="-91.2" font-family="Times,serif" font-size="14.00">starts :datetime</text>
<text text-anchor="start" x="301.495" y="-74.4" font-family="Times,serif" font-size="14.00">ends :datetime</text>
<text text-anchor="start" x="301.495" y="-57.6" font-family="Times,serif" font-size="14.00">title :string</text>
<text text-anchor="start" x="301.495" y="-40.8" font-family="Times,serif" font-size="14.00">description :text</text>
<text text-anchor="start" x="301.495" y="-24" font-family="Times,serif" font-size="14.00">created_at :datetime</text>
<text text-anchor="start" x="301.495" y="-7.2" font-family="Times,serif" font-size="14.00">updated_at :datetime</text>
</g>
<!-- User&#45;&gt;Workshop -->
<g id="edge4" class="edge"><title>User&#45;&gt;Workshop</title>
<path fill="none" stroke="#0111c4" d="M297.291,-214.523C297.441,-204.824 298.534,-195.136 301.007,-186 301.778,-183.152 302.651,-180.301 303.613,-177.458"/>
<ellipse fill="none" stroke="#0111c4" cx="297.335" cy="-218.661" rx="4" ry="4"/>
<polygon fill="#0111c4" stroke="#0111c4" points="303.708,-177.203 311.42,-169.407 305.456,-172.518 307.204,-167.834 307.204,-167.834 307.204,-167.834 305.456,-172.518 302.988,-166.261 303.708,-177.203 303.708,-177.203"/>
<text text-anchor="middle" x="353.497" y="-189.4" font-family="Times,serif" font-size="14.00">owned_workshops</text>
</g>
<!-- ActiveRecord::Base -->
<g id="node5" class="node"><title>ActiveRecord::Base</title>
<ellipse fill="none" stroke="black" cx="313" cy="-455" rx="88.2033" ry="18"/>
<text text-anchor="middle" x="313" y="-449.4" font-family="Times,serif" font-size="14.00">ActiveRecord::Base</text>
</g>
<!-- ActiveRecord::Base&#45;&gt;Attendance -->
<g id="edge2" class="edge"><title>ActiveRecord::Base&#45;&gt;Attendance</title>
<path fill="none" stroke="black" d="M296.444,-437.117C277.516,-417.816 245.509,-385.177 217.361,-356.474"/>
</g>
<!-- ActiveRecord::Base&#45;&gt;User -->
<g id="edge6" class="edge"><title>ActiveRecord::Base&#45;&gt;User</title>
<path fill="none" stroke="black" d="M313,-436.82C313,-421.214 313,-397.067 313,-373.319"/>
</g>
<!-- ActiveRecord::Base&#45;&gt;Workshop -->
<g id="edge8" class="edge"><title>ActiveRecord::Base&#45;&gt;Workshop</title>
<path fill="none" stroke="black" d="M335.166,-437.273C352.723,-422.662 376.192,-399.792 388,-374 422.939,-297.68 423.8,-268.029 406,-186 404.692,-179.975 402.993,-173.877 401.02,-167.82"/>
</g>
</g>
</svg>
