<?xml version="1.0" encoding="UTF-8" standalone="no"?>
<!DOCTYPE svg PUBLIC "-//W3C//DTD SVG 1.1//EN"
 "http://www.w3.org/Graphics/SVG/1.1/DTD/svg11.dtd">
<!-- Generated by graphviz version 2.28.0 (20111028.1807)
 -->
<!-- Title: models_diagram Pages: 1 -->
<svg width="409pt" height="258pt"
 viewBox="0.00 0.00 409.00 258.00" xmlns="http://www.w3.org/2000/svg" xmlns:xlink="http://www.w3.org/1999/xlink">
<g id="graph1" class="graph" transform="scale(1 1) rotate(0) translate(4 254)">
<title>models_diagram</title>
<polygon fill="white" stroke="white" points="-4,5 -4,-254 406,-254 406,5 -4,5"/>
<!-- _diagram_info -->
<g id="node1" class="node"><title>_diagram_info</title>
<text text-anchor="start" x="7.78833" y="-233" font-family="Times,serif" font-size="13.00">Models diagram</text>
<text text-anchor="start" x="7.78833" y="-217.4" font-family="Times,serif" font-size="13.00">Date: Mar 15 2014 &#45; 10:36</text>
<text text-anchor="start" x="7.78833" y="-201.8" font-family="Times,serif" font-size="13.00">Migration version: 20140301112219</text>
<text text-anchor="start" x="7.78833" y="-186.2" font-family="Times,serif" font-size="13.00">Generated by RailRoady 1.1.1</text>
<text text-anchor="start" x="7.78833" y="-170.6" font-family="Times,serif" font-size="13.00">http://railroady.prestonlee.com</text>
</g>
<!-- Attendance -->
<g id="node2" class="node"><title>Attendance</title>
<ellipse fill="none" stroke="black" cx="211" cy="-108" rx="55.0101" ry="18"/>
<text text-anchor="middle" x="211" y="-102.4" font-family="Times,serif" font-size="14.00">Attendance</text>
</g>
<!-- User -->
<g id="node3" class="node"><title>User</title>
<ellipse fill="none" stroke="black" cx="313" cy="-108" rx="28.9087" ry="18"/>
<text text-anchor="middle" x="313" y="-102.4" font-family="Times,serif" font-size="14.00">User</text>
</g>
<!-- Workshop -->
<g id="node4" class="node"><title>Workshop</title>
<ellipse fill="none" stroke="black" cx="341" cy="-18" rx="50.2483" ry="18"/>
<text text-anchor="middle" x="341" y="-12.4" font-family="Times,serif" font-size="14.00">Workshop</text>
</g>
<!-- User&#45;&gt;Workshop -->
<g id="edge4" class="edge"><title>User&#45;&gt;Workshop</title>
<path fill="none" stroke="#da8f65" d="M290.532,-87.2425C282.012,-77.3011 275.717,-65.0456 282.007,-54 285.943,-47.0876 291.842,-41.3995 298.411,-36.7675"/>
<ellipse fill="none" stroke="#da8f65" cx="293.295" cy="-90.1854" rx="4.00002" ry="4.00002"/>
<polygon fill="#da8f65" stroke="#da8f65" points="298.491,-36.7179 309.362,-35.2781 302.741,-34.0852 306.992,-31.4524 306.992,-31.4524 306.992,-31.4524 302.741,-34.0852 304.623,-27.6268 298.491,-36.7179 298.491,-36.7179"/>
<text text-anchor="middle" x="334.497" y="-57.4" font-family="Times,serif" font-size="14.00">owned_workshops</text>
</g>
<!-- ActiveRecord::Base -->
<g id="node5" class="node"><title>ActiveRecord::Base</title>
<ellipse fill="none" stroke="black" cx="313" cy="-207" rx="88.2033" ry="18"/>
<text text-anchor="middle" x="313" y="-201.4" font-family="Times,serif" font-size="14.00">ActiveRecord::Base</text>
</g>
<!-- ActiveRecord::Base&#45;&gt;Attendance -->
<g id="edge2" class="edge"><title>ActiveRecord::Base&#45;&gt;Attendance</title>
<path fill="none" stroke="black" d="M295.233,-189.104C276.397,-171.192 246.85,-143.093 228.224,-125.379"/>
</g>
<!-- ActiveRecord::Base&#45;&gt;User -->
<g id="edge6" class="edge"><title>ActiveRecord::Base&#45;&gt;User</title>
<path fill="none" stroke="black" d="M313,-188.658C313,-171.002 313,-143.793 313,-126.192"/>
</g>
<!-- ActiveRecord::Base&#45;&gt;Workshop -->
<g id="edge8" class="edge"><title>ActiveRecord::Base&#45;&gt;Workshop</title>
<path fill="none" stroke="black" d="M326.134,-189.018C344.029,-164.697 375.192,-117.807 387,-72 388.997,-64.2532 390.553,-61.1678 387,-54 382.9,-45.7283 375.806,-38.8816 368.399,-33.504"/>
</g>
</g>
</svg>
