<?xml version="1.0" encoding="UTF-8" standalone="no"?>
<!DOCTYPE svg PUBLIC "-//W3C//DTD SVG 1.1//EN"
 "http://www.w3.org/Graphics/SVG/1.1/DTD/svg11.dtd">
<!-- Generated by graphviz version 2.28.0 (20111028.1807)
 -->
<!-- Title: models_diagram Pages: 1 -->
<svg width="507pt" height="258pt"
 viewBox="0.00 0.00 507.07 258.00" xmlns="http://www.w3.org/2000/svg" xmlns:xlink="http://www.w3.org/1999/xlink">
<g id="graph1" class="graph" transform="scale(1 1) rotate(0) translate(4 254)">
<title>models_diagram</title>
<polygon fill="white" stroke="white" points="-4,5 -4,-254 504.068,-254 504.068,5 -4,5"/>
<!-- _diagram_info -->
<g id="node1" class="node"><title>_diagram_info</title>
<text text-anchor="start" x="7.31226" y="-233" font-family="Times,serif" font-size="13.00">Models diagram</text>
<text text-anchor="start" x="7.31226" y="-217.4" font-family="Times,serif" font-size="13.00">Date: Mar 15 2014 &#45; 11:23</text>
<text text-anchor="start" x="7.31226" y="-201.8" font-family="Times,serif" font-size="13.00">Migration version: 20140315100628</text>
<text text-anchor="start" x="7.31226" y="-186.2" font-family="Times,serif" font-size="13.00">Generated by RailRoady 1.1.1</text>
<text text-anchor="start" x="7.31226" y="-170.6" font-family="Times,serif" font-size="13.00">http://railroady.prestonlee.com</text>
</g>
<!-- Attendance -->
<g id="node2" class="node"><title>Attendance</title>
<ellipse fill="none" stroke="black" cx="90" cy="-108" rx="55.0101" ry="18"/>
<text text-anchor="middle" x="90" y="-102.4" font-family="Times,serif" font-size="14.00">Attendance</text>
</g>
<!-- Group -->
<g id="node3" class="node"><title>Group</title>
<ellipse fill="none" stroke="black" cx="199" cy="-108" rx="35.5667" ry="18"/>
<text text-anchor="middle" x="199" y="-102.4" font-family="Times,serif" font-size="14.00">Group</text>
</g>
<!-- Membership -->
<g id="node4" class="node"><title>Membership</title>
<ellipse fill="none" stroke="black" cx="313" cy="-108" rx="59.2755" ry="18"/>
<text text-anchor="middle" x="313" y="-102.4" font-family="Times,serif" font-size="14.00">Membership</text>
</g>
<!-- User -->
<g id="node5" class="node"><title>User</title>
<ellipse fill="none" stroke="black" cx="420" cy="-108" rx="28.9087" ry="18"/>
<text text-anchor="middle" x="420" y="-102.4" font-family="Times,serif" font-size="14.00">User</text>
</g>
<!-- Workshop -->
<g id="node6" class="node"><title>Workshop</title>
<ellipse fill="none" stroke="black" cx="448" cy="-18" rx="50.2483" ry="18"/>
<text text-anchor="middle" x="448" y="-12.4" font-family="Times,serif" font-size="14.00">Workshop</text>
</g>
<!-- User&#45;&gt;Workshop -->
<g id="edge8" class="edge"><title>User&#45;&gt;Workshop</title>
<path fill="none" stroke="#80bc53" d="M397.532,-87.2425C389.012,-77.3011 382.717,-65.0456 389.007,-54 392.943,-47.0876 398.842,-41.3995 405.411,-36.7675"/>
<ellipse fill="none" stroke="#80bc53" cx="400.295" cy="-90.1854" rx="4.00002" ry="4.00002"/>
<polygon fill="#80bc53" stroke="#80bc53" points="405.491,-36.7179 416.362,-35.2781 409.741,-34.0852 413.992,-31.4524 413.992,-31.4524 413.992,-31.4524 409.741,-34.0852 411.623,-27.6268 405.491,-36.7179 405.491,-36.7179"/>
<text text-anchor="middle" x="441.497" y="-57.4" font-family="Times,serif" font-size="14.00">owned_workshops</text>
</g>
<!-- ActiveRecord::Base -->
<g id="node7" class="node"><title>ActiveRecord::Base</title>
<ellipse fill="none" stroke="black" cx="313" cy="-207" rx="88.2033" ry="18"/>
<text text-anchor="middle" x="313" y="-201.4" font-family="Times,serif" font-size="14.00">ActiveRecord::Base</text>
</g>
<!-- ActiveRecord::Base&#45;&gt;Attendance -->
<g id="edge2" class="edge"><title>ActiveRecord::Base&#45;&gt;Attendance</title>
<path fill="none" stroke="black" d="M277.171,-190.415C234.203,-171.725 162.846,-140.686 121.767,-122.818"/>
</g>
<!-- ActiveRecord::Base&#45;&gt;Group -->
<g id="edge4" class="edge"><title>ActiveRecord::Base&#45;&gt;Group</title>
<path fill="none" stroke="black" d="M293.403,-189.325C271.758,-170.908 237.231,-141.53 216.475,-123.869"/>
</g>
<!-- ActiveRecord::Base&#45;&gt;Membership -->
<g id="edge6" class="edge"><title>ActiveRecord::Base&#45;&gt;Membership</title>
<path fill="none" stroke="black" d="M313,-188.658C313,-171.002 313,-143.793 313,-126.192"/>
</g>
<!-- ActiveRecord::Base&#45;&gt;User -->
<g id="edge10" class="edge"><title>ActiveRecord::Base&#45;&gt;User</title>
<path fill="none" stroke="black" d="M331.638,-189.104C352.115,-170.54 384.662,-141.036 404.017,-123.489"/>
</g>
<!-- ActiveRecord::Base&#45;&gt;Workshop -->
<g id="edge12" class="edge"><title>ActiveRecord::Base&#45;&gt;Workshop</title>
<path fill="none" stroke="black" d="M351.922,-190.677C383.108,-177.039 426.677,-154.801 458,-126 484.336,-101.784 509.889,-86.0552 494,-54 489.9,-45.7283 482.806,-38.8816 475.399,-33.504"/>
</g>
</g>
</svg>
