<?xml version="1.0" encoding="UTF-8" standalone="no"?>
<!DOCTYPE svg PUBLIC "-//W3C//DTD SVG 1.1//EN"
 "http://www.w3.org/Graphics/SVG/1.1/DTD/svg11.dtd">
<!-- Generated by graphviz version 2.28.0 (20111028.1807)
 -->
<!-- Title: models_diagram Pages: 1 -->
<svg width="642pt" height="506pt"
 viewBox="0.00 0.00 642.00 506.00" xmlns="http://www.w3.org/2000/svg" xmlns:xlink="http://www.w3.org/1999/xlink">
<g id="graph1" class="graph" transform="scale(1 1) rotate(0) translate(4 502)">
<title>models_diagram</title>
<polygon fill="white" stroke="white" points="-4,5 -4,-502 639,-502 639,5 -4,5"/>
<!-- _diagram_info -->
<g id="node1" class="node"><title>_diagram_info</title>
<text text-anchor="start" x="64.3123" y="-481" font-family="Times,serif" font-size="13.00">Models diagram</text>
<text text-anchor="start" x="64.3123" y="-465.4" font-family="Times,serif" font-size="13.00">Date: Mar 15 2014 &#45; 11:23</text>
<text text-anchor="start" x="64.3123" y="-449.8" font-family="Times,serif" font-size="13.00">Migration version: 20140315100628</text>
<text text-anchor="start" x="64.3123" y="-434.2" font-family="Times,serif" font-size="13.00">Generated by RailRoady 1.1.1</text>
<text text-anchor="start" x="64.3123" y="-418.6" font-family="Times,serif" font-size="13.00">http://railroady.prestonlee.com</text>
</g>
<!-- Attendance -->
<g id="node2" class="node"><title>Attendance</title>
<polyline fill="none" stroke="black" points="11.3154,-239.6 122.685,-239.6 "/>
<path fill="none" stroke="black" d="M122.685,-239.6C128.685,-239.6 134.685,-245.6 134.685,-251.6"/>
<polyline fill="none" stroke="black" points="134.685,-251.6 134.685,-344.4 "/>
<path fill="none" stroke="black" d="M134.685,-344.4C134.685,-350.4 128.685,-356.4 122.685,-356.4"/>
<polyline fill="none" stroke="black" points="122.685,-356.4 11.3154,-356.4 "/>
<path fill="none" stroke="black" d="M11.3154,-356.4C5.31543,-356.4 -0.68457,-350.4 -0.68457,-344.4"/>
<polyline fill="none" stroke="black" points="-0.68457,-344.4 -0.68457,-251.6 "/>
<path fill="none" stroke="black" d="M-0.68457,-251.6C-0.68457,-245.6 5.31543,-239.6 11.3154,-239.6"/>
<text text-anchor="middle" x="67" y="-338.4" font-family="Times,serif" font-size="14.00">Attendance</text>
<polyline fill="none" stroke="black" points="-0.68457,-331.6 134.685,-331.6 "/>
<text text-anchor="start" x="7.31543" y="-313.6" font-family="Times,serif" font-size="14.00">id :integer</text>
<text text-anchor="start" x="7.31543" y="-296.8" font-family="Times,serif" font-size="14.00">user_id :integer</text>
<text text-anchor="start" x="7.31543" y="-280" font-family="Times,serif" font-size="14.00">workshop_id :integer</text>
<text text-anchor="start" x="7.31543" y="-263.2" font-family="Times,serif" font-size="14.00">created_at :datetime</text>
<text text-anchor="start" x="7.31543" y="-246.4" font-family="Times,serif" font-size="14.00">updated_at :datetime</text>
</g>
<!-- Group -->
<g id="node3" class="node"><title>Group</title>
<polyline fill="none" stroke="black" points="164.495,-239.6 273.505,-239.6 "/>
<path fill="none" stroke="black" d="M273.505,-239.6C279.505,-239.6 285.505,-245.6 285.505,-251.6"/>
<polyline fill="none" stroke="black" points="285.505,-251.6 285.505,-344.4 "/>
<path fill="none" stroke="black" d="M285.505,-344.4C285.505,-350.4 279.505,-356.4 273.505,-356.4"/>
<polyline fill="none" stroke="black" points="273.505,-356.4 164.495,-356.4 "/>
<path fill="none" stroke="black" d="M164.495,-356.4C158.495,-356.4 152.495,-350.4 152.495,-344.4"/>
<polyline fill="none" stroke="black" points="152.495,-344.4 152.495,-251.6 "/>
<path fill="none" stroke="black" d="M152.495,-251.6C152.495,-245.6 158.495,-239.6 164.495,-239.6"/>
<text text-anchor="middle" x="219" y="-338.4" font-family="Times,serif" font-size="14.00">Group</text>
<polyline fill="none" stroke="black" points="152.495,-331.6 285.505,-331.6 "/>
<text text-anchor="start" x="160.495" y="-313.6" font-family="Times,serif" font-size="14.00">id :integer</text>
<text text-anchor="start" x="160.495" y="-296.8" font-family="Times,serif" font-size="14.00">name :string</text>
<text text-anchor="start" x="160.495" y="-280" font-family="Times,serif" font-size="14.00">leader_id :integer</text>
<text text-anchor="start" x="160.495" y="-263.2" font-family="Times,serif" font-size="14.00">created_at :datetime</text>
<text text-anchor="start" x="160.495" y="-246.4" font-family="Times,serif" font-size="14.00">updated_at :datetime</text>
</g>
<!-- Membership -->
<g id="node4" class="node"><title>Membership</title>
<polyline fill="none" stroke="black" points="315.495,-239.6 424.505,-239.6 "/>
<path fill="none" stroke="black" d="M424.505,-239.6C430.505,-239.6 436.505,-245.6 436.505,-251.6"/>
<polyline fill="none" stroke="black" points="436.505,-251.6 436.505,-344.4 "/>
<path fill="none" stroke="black" d="M436.505,-344.4C436.505,-350.4 430.505,-356.4 424.505,-356.4"/>
<polyline fill="none" stroke="black" points="424.505,-356.4 315.495,-356.4 "/>
<path fill="none" stroke="black" d="M315.495,-356.4C309.495,-356.4 303.495,-350.4 303.495,-344.4"/>
<polyline fill="none" stroke="black" points="303.495,-344.4 303.495,-251.6 "/>
<path fill="none" stroke="black" d="M303.495,-251.6C303.495,-245.6 309.495,-239.6 315.495,-239.6"/>
<text text-anchor="middle" x="370" y="-338.4" font-family="Times,serif" font-size="14.00">Membership</text>
<polyline fill="none" stroke="black" points="303.495,-331.6 436.505,-331.6 "/>
<text text-anchor="start" x="311.495" y="-313.6" font-family="Times,serif" font-size="14.00">id :integer</text>
<text text-anchor="start" x="311.495" y="-296.8" font-family="Times,serif" font-size="14.00">user_id :integer</text>
<text text-anchor="start" x="311.495" y="-280" font-family="Times,serif" font-size="14.00">group_id :integer</text>
<text text-anchor="start" x="311.495" y="-263.2" font-family="Times,serif" font-size="14.00">created_at :datetime</text>
<text text-anchor="start" x="311.495" y="-246.4" font-family="Times,serif" font-size="14.00">updated_at :datetime</text>
</g>
<!-- User -->
<g id="node5" class="node"><title>User</title>
<polyline fill="none" stroke="black" points="466.495,-222.8 575.505,-222.8 "/>
<path fill="none" stroke="black" d="M575.505,-222.8C581.505,-222.8 587.505,-228.8 587.505,-234.8"/>
<polyline fill="none" stroke="black" points="587.505,-234.8 587.505,-361.2 "/>
<path fill="none" stroke="black" d="M587.505,-361.2C587.505,-367.2 581.505,-373.2 575.505,-373.2"/>
<polyline fill="none" stroke="black" points="575.505,-373.2 466.495,-373.2 "/>
<path fill="none" stroke="black" d="M466.495,-373.2C460.495,-373.2 454.495,-367.2 454.495,-361.2"/>
<polyline fill="none" stroke="black" points="454.495,-361.2 454.495,-234.8 "/>
<path fill="none" stroke="black" d="M454.495,-234.8C454.495,-228.8 460.495,-222.8 466.495,-222.8"/>
<text text-anchor="middle" x="521" y="-355.2" font-family="Times,serif" font-size="14.00">User</text>
<polyline fill="none" stroke="black" points="454.495,-348.4 587.505,-348.4 "/>
<text text-anchor="start" x="462.495" y="-330.4" font-family="Times,serif" font-size="14.00">id :integer</text>
<text text-anchor="start" x="462.495" y="-313.6" font-family="Times,serif" font-size="14.00">name :string</text>
<text text-anchor="start" x="462.495" y="-296.8" font-family="Times,serif" font-size="14.00">firstname :string</text>
<text text-anchor="start" x="462.495" y="-280" font-family="Times,serif" font-size="14.00">email :string</text>
<text text-anchor="start" x="462.495" y="-263.2" font-family="Times,serif" font-size="14.00">password :string</text>
<text text-anchor="start" x="462.495" y="-246.4" font-family="Times,serif" font-size="14.00">created_at :datetime</text>
<text text-anchor="start" x="462.495" y="-229.6" font-family="Times,serif" font-size="14.00">updated_at :datetime</text>
</g>
<!-- Workshop -->
<g id="node6" class="node"><title>Workshop</title>
<polyline fill="none" stroke="black" points="513.495,-0.4 622.505,-0.4 "/>
<path fill="none" stroke="black" d="M622.505,-0.4C628.505,-0.4 634.505,-6.4 634.505,-12.4"/>
<polyline fill="none" stroke="black" points="634.505,-12.4 634.505,-155.6 "/>
<path fill="none" stroke="black" d="M634.505,-155.6C634.505,-161.6 628.505,-167.6 622.505,-167.6"/>
<polyline fill="none" stroke="black" points="622.505,-167.6 513.495,-167.6 "/>
<path fill="none" stroke="black" d="M513.495,-167.6C507.495,-167.6 501.495,-161.6 501.495,-155.6"/>
<polyline fill="none" stroke="black" points="501.495,-155.6 501.495,-12.4 "/>
<path fill="none" stroke="black" d="M501.495,-12.4C501.495,-6.4 507.495,-0.4 513.495,-0.4"/>
<text text-anchor="middle" x="568" y="-149.6" font-family="Times,serif" font-size="14.00">Workshop</text>
<polyline fill="none" stroke="black" points="501.495,-142.8 634.505,-142.8 "/>
<text text-anchor="start" x="509.495" y="-124.8" font-family="Times,serif" font-size="14.00">id :integer</text>
<text text-anchor="start" x="509.495" y="-108" font-family="Times,serif" font-size="14.00">owner_id :integer</text>
<text text-anchor="start" x="509.495" y="-91.2" font-family="Times,serif" font-size="14.00">starts :datetime</text>
<text text-anchor="start" x="509.495" y="-74.4" font-family="Times,serif" font-size="14.00">ends :datetime</text>
<text text-anchor="start" x="509.495" y="-57.6" font-family="Times,serif" font-size="14.00">title :string</text>
<text text-anchor="start" x="509.495" y="-40.8" font-family="Times,serif" font-size="14.00">description :text</text>
<text text-anchor="start" x="509.495" y="-24" font-family="Times,serif" font-size="14.00">created_at :datetime</text>
<text text-anchor="start" x="509.495" y="-7.2" font-family="Times,serif" font-size="14.00">updated_at :datetime</text>
</g>
<!-- User&#45;&gt;Workshop -->
<g id="edge8" class="edge"><title>User&#45;&gt;Workshop</title>
<path fill="none" stroke="#f9ae21" d="M505.291,-214.523C505.441,-204.824 506.534,-195.136 509.007,-186 509.778,-183.152 510.651,-180.301 511.613,-177.458"/>
<ellipse fill="none" stroke="#f9ae21" cx="505.335" cy="-218.661" rx="4" ry="4"/>
<polygon fill="#f9ae21" stroke="#f9ae21" points="511.708,-177.203 519.42,-169.407 513.456,-172.518 515.204,-167.834 515.204,-167.834 515.204,-167.834 513.456,-172.518 510.988,-166.261 511.708,-177.203 511.708,-177.203"/>
<text text-anchor="middle" x="561.497" y="-189.4" font-family="Times,serif" font-size="14.00">owned_workshops</text>
</g>
<!-- ActiveRecord::Base -->
<g id="node7" class="node"><title>ActiveRecord::Base</title>
<ellipse fill="none" stroke="black" cx="370" cy="-455" rx="88.2033" ry="18"/>
<text text-anchor="middle" x="370" y="-449.4" font-family="Times,serif" font-size="14.00">ActiveRecord::Base</text>
</g>
<!-- ActiveRecord::Base&#45;&gt;Attendance -->
<g id="edge2" class="edge"><title>ActiveRecord::Base&#45;&gt;Attendance</title>
<path fill="none" stroke="black" d="M335.928,-438.219C317.263,-429.874 293.595,-419.777 272,-412 215.767,-391.748 194.49,-404.35 143,-374 134.696,-369.105 126.629,-363.104 119.047,-356.649"/>
</g>
<!-- ActiveRecord::Base&#45;&gt;Group -->
<g id="edge4" class="edge"><title>ActiveRecord::Base&#45;&gt;Group</title>
<path fill="none" stroke="black" d="M353.553,-437.117C334.749,-417.816 302.953,-385.177 274.99,-356.474"/>
</g>
<!-- ActiveRecord::Base&#45;&gt;Membership -->
<g id="edge6" class="edge"><title>ActiveRecord::Base&#45;&gt;Membership</title>
<path fill="none" stroke="black" d="M370,-436.82C370,-417.509 370,-385.122 370,-356.594"/>
</g>
<!-- ActiveRecord::Base&#45;&gt;User -->
<g id="edge10" class="edge"><title>ActiveRecord::Base&#45;&gt;User</title>
<path fill="none" stroke="black" d="M386.447,-437.117C402.881,-420.248 429.239,-393.191 454.289,-367.478"/>
</g>
<!-- ActiveRecord::Base&#45;&gt;Workshop -->
<g id="edge12" class="edge"><title>ActiveRecord::Base&#45;&gt;Workshop</title>
<path fill="none" stroke="black" d="M449.307,-447.038C499.344,-438.239 560.936,-418.438 596,-374 647.995,-308.105 631.8,-268.029 614,-186 612.692,-179.975 610.993,-173.877 609.02,-167.82"/>
</g>
</g>
</svg>
