<svg xmlns="http://www.w3.org/2000/svg" viewBox="0 0 41 41" enable-background="new 0 0 41 41"><path fill="#4C4C4C" d="M40.5 21.4c0 1.8-1.4 3.2-3.2 3.2h-2.1c-.3 1.2-.8 2.4-1.5 3.5 1.2 1.2 2.9 2.3 2.9 4.2 0 1.9-2.4 4.4-4.3 4.4s-3-1.7-4.2-2.9c-1.1.6-2.3 1.1-3.5 1.4v2.1c0 1.8-1.4 3.2-3.2 3.2h-1.6c-1.8 0-3.2-1.4-3.2-3.2v-2.1c-1.2-.3-2.4-.8-3.5-1.4-1.2 1.2-2.4 2.9-4.2 2.9-1.9 0-4.3-2.4-4.3-4.4 0-1.9 1.7-3 2.9-4.2-.6-1.1-1.1-2.3-1.5-3.5H3.7c-1.8 0-3.2-1.4-3.2-3.2v-1.6c0-1.8 1.4-3.2 3.2-3.2h2.1c.3-1.2.8-2.4 1.4-3.5-1.2-1.2-2.8-2.3-2.8-4.2 0-1.9 2.4-4.3 4.3-4.3 1.8 0 2.9 1.6 4.1 2.8 1.2-.7 2.4-1.2 3.7-1.5V3.7c0-1.8 1.4-3.2 3.2-3.2h1.6c1.8 0 3.2 1.4 3.2 3.2v2.2c1.3.4 2.5.8 3.6 1.5 1.2-1.2 2.3-2.8 4.1-2.8 1.9 0 4.3 2.4 4.3 4.3s-1.6 3-2.8 4.2c.6 1.1 1.1 2.3 1.4 3.5h2.1c1.8 0 3.2 1.4 3.2 3.2v1.6zm-20-9.6c-4.9 0-8.8 4-8.8 8.8s4 8.8 8.8 8.8 8.8-3.9 8.8-8.8-3.9-8.8-8.8-8.8zm0 12.8c-2.2 0-4-1.8-4-4s1.8-4 4-4 4 1.8 4 4-1.8 4-4 4z"/></svg>