<svg xmlns="http://www.w3.org/2000/svg" viewBox="0 0 57.7 57.7" enable-background="new 0 0 57.7 57.7"><g><g><path d="M28.8 24.9c-2.2 0-4 1.8-4 4s1.8 4 4 4 4-1.8 4-4-1.8-4-4-4zM45.6 24.9h-2.1c-.3-1.2-.8-2.4-1.4-3.5 1.2-1.2 2.8-2.3 2.8-4.2 0-1.9-2.4-4.3-4.3-4.3-1.8 0-2.9 1.6-4.1 2.8-1.1-.7-2.4-1.2-3.6-1.5V12c0-1.8-1.4-3.2-3.2-3.2H28c-1.8 0-3.2 1.4-3.2 3.2v2.2c-1.3.4-2.5.8-3.7 1.5-1.2-1.2-2.3-2.8-4.1-2.8-1.9 0-4.3 2.4-4.3 4.3s1.6 3 2.8 4.2c-.6 1.1-1.1 2.3-1.4 3.5H12c-1.8 0-3.2 1.4-3.2 3.2v1.6c0 1.8 1.4 3.2 3.2 3.2h2.1c.4 1.2.8 2.4 1.5 3.5-1.2 1.2-2.9 2.3-2.9 4.2 0 1.9 2.4 4.4 4.3 4.4s3-1.7 4.2-2.9c1.1.6 2.3 1.1 3.5 1.4v2.1c0 1.8 1.4 3.2 3.2 3.2h1.6c1.8 0 3.2-1.4 3.2-3.2v-2.1c1.2-.3 2.4-.8 3.5-1.4 1.2 1.2 2.4 2.9 4.2 2.9 1.9 0 4.3-2.4 4.3-4.4 0-1.9-1.7-3-2.9-4.2.6-1.1 1.1-2.3 1.5-3.5h2.1c1.8 0 3.2-1.4 3.2-3.2v-1.6c.2-1.7-1.2-3.2-3-3.2zM28.8 37.8C24 37.8 20 33.9 20 29s4-8.8 8.8-8.8 8.8 4 8.8 8.8-3.9 8.8-8.8 8.8z"/></g></g></svg>
