<svg xmlns="http://www.w3.org/2000/svg" viewBox="0 0 41 41" enable-background="new 0 0 41 41"><path fill="#4C4C4C" d="M40.8 20.5c0 11.2-9.1 20.3-20.3 20.3S.2 31.7.2 20.5 9.3.2 20.5.2s20.3 9.1 20.3 20.3zm-7.8-1c1.2-1 2.1-3 2.1-4.7 0-2.4-1.7-4.1-3.5-4.1-1.7 0-3.5 1.6-3.5 3.9 0 1.7.8 3.8 2 4.8l.1.1H30c-.3.8-1.4 1.2-3.6 1.8-.7.3-.7.5-.6.8.3.7 1.4 1 3.5 1.6l.5.1c1.6.5 2.2 1.3 2.5 2.2h7.4c0-1.5.5-3.6-2.5-4.5-2.7-.8-4-1.1-4.2-2zM32.1 31c0-1 .1-2-.3-3s-1.3-1.9-3.1-2.4l-.7-.2c-3.6-1-5.4-1.6-5.8-3.1l-.1-.3.2-.2.3-.3c1.5-1.6 2.7-4.2 2.7-6.4 0-3.4-2.5-5.6-4.7-5.6-2.9 0-4.9 2.8-4.9 5.5 0 2.1.9 4.6 2.2 6.2.2.2.4.4.6.7l.1.1v.4l-.2.3c-.6 1.2-2.3 1.8-5.6 2.7l-.8.2c-1.8.5-2.7 1.4-3 2.4-.3.9-.2 1.8-.1 2.7 0 .3 0 .5.1.7h23.1V31zM3.8 21.5c-3 .9-2.5 3-2.5 4.5h7.4c.3-.9.9-1.7 2.5-2.2l.5-.1c2.1-.6 3.2-.9 3.5-1.6-.1-.3.1-.7-.6-.8-2.2-.7-3.4-1-3.6-1.8h-.1l.1-.1c1.1-1.1 2-3.1 2-4.8 0-2.4-1.8-3.9-3.5-3.9S6 12.4 6 14.8c0 1.7.9 3.7 2.1 4.7-.3.9-1.6 1.2-4.3 2z"/></svg>