<svg xmlns="http://www.w3.org/2000/svg" viewBox="0 0 128 68" enable-background="new 0 0 128 68"><path fill="#fff" d="M90.6 55H37.2V16.4h6.7V23h10.7v-6.7h18.6V23h10.7v-6.7h6.7V55zm-4.1-3.9V27H41.2v24h45.3zM51.9 20.4h-5.3v-8h5.3v8zm5.7 22.7l5.2.1v2.3h-8.4v-2.2l3.7-3.5c.9-.9 2-2 2-3.3 0-1.2-.7-1.8-1.9-1.8s-2.3.5-3.2 1.3v-2.5c1.1-.7 2.4-1.1 3.8-1.1 2.3 0 4.2 1.1 4.2 3.6-.1 3-3.5 5.5-5.4 7.1zm10.8 2.6c-1.1 0-2.2-.2-3.2-.7v-2.4c.9.6 1.9.9 3 .9s2.3-.4 2.3-1.8c0-2-2.7-1.8-4-1.8v-2.2c1.2 0 3.6.2 3.6-1.6 0-1.2-.9-1.6-1.9-1.6-.9 0-1.8.3-2.5.8V33c1-.5 2.1-.7 3.2-.7 2 0 4.1.8 4.1 3.2 0 1.7-.9 2.7-2.5 3.2v.1c1.6.2 2.9 1.2 2.9 3 0 2.9-2.5 3.9-5 3.9zm12.8-25.3h-5.3v-8h5.3v8z"/></svg>