<svg xmlns="http://www.w3.org/2000/svg" viewBox="0 0 57.7 57.7" enable-background="new 0 0 57.7 57.7"><g><g><path d="M48.5 45H9.2V16.5h4.9v4.9H22v-4.9h13.8v4.9h7.9v-4.9h4.9V45zm-3-2.9V24.4H12.1v17.7h33.4zM20 19.4h-4v-5.9h4v5.9zm4.2 16.8H28V38h-6.2v-1.6l2.7-2.6c.7-.7 1.5-1.4 1.5-2.4 0-.9-.5-1.3-1.4-1.3-.9 0-1.7.4-2.3 1v-1.8c.8-.5 1.8-.8 2.8-.8 1.7 0 3.1.8 3.1 2.7-.1 2-2.6 3.8-4 5zm8 1.9c-.8 0-1.6-.1-2.4-.5v-1.8c.6.5 1.4.7 2.2.7.8 0 1.7-.3 1.7-1.3 0-1.4-2-1.3-2.9-1.3v-1.6c.9 0 2.6.2 2.6-1.2 0-.9-.6-1.2-1.4-1.2-.7 0-1.3.3-1.8.6v-1.7c.7-.4 1.5-.5 2.3-.5 1.5 0 3.1.6 3.1 2.3 0 1.3-.7 2-1.9 2.3 1.2.2 2.2.9 2.2 2.2-.1 2.2-1.9 3-3.7 3zm9.4-18.7h-3.9v-5.9h3.9v5.9z"/></g></g></svg>
