<svg xmlns="http://www.w3.org/2000/svg" viewBox="0 0 57.7 57.7" enable-background="new 0 0 57.7 57.7"><g><g><path d="M28.8 48.8c-11 0-20-9-20-20s9-20 20-20 20 9 20 20-8.9 20-20 20zm13.9-20l1.3-1.3c-.6-7.3-6.5-13.2-13.8-13.8l-1.4 1.4-1.4-1.4c-7.2.6-13 6.4-13.8 13.6l1.6 1.6-1.6 1.6c.7 7.2 6.5 12.9 13.7 13.6l1.5-1.5 1.5 1.5c7.3-.7 13-6.6 13.7-13.8l-1.3-1.5zm-7.6 7.1c-.4 0-.8-.1-1.2-.4l-7.2-5.1V18.1c0-1.2 1-1.7 2.1-1.7s2.1.5 2.1 1.7v10.1l5.5 3.9c.5.4.9 1 .9 1.7-.1 1.1-1 2.1-2.2 2.1z"/></g></g></svg>
