<svg xmlns="http://www.w3.org/2000/svg" viewBox="0 0 57.7 57.7" enable-background="new 0 0 57.7 57.7"><g><g><path d="M57.8 57.8H0V0h57.8v57.8zM43.3 17.7L40 14.5c-.3-.3-.6-.4-1-.4s-.8.1-1.1.4l-9.1 9.1-9.1-9.1c-.3-.3-.7-.4-1.1-.4-.4 0-.8.1-1 .4l-3.2 3.2c-.3.3-.4.6-.4 1s.1.8.4 1.1l9.1 9.1-9 9.1c-.3.3-.5.6-.5 1s.1.8.4 1l3.2 3.2c.3.3.6.4 1 .4s.8-.1 1.1-.4l9.1-9.1 9.1 9.1c.3.3.7.4 1.1.4.4 0 .8-.1 1-.4l3.2-3.2c.3-.3.4-.6.4-1s-.1-.8-.4-1.1l-9.1-9.1 9.1-9.1c.3-.3.4-.7.4-1.1s-.1-.6-.3-.9z"/></g></g></svg>
