<svg xmlns="http://www.w3.org/2000/svg" viewBox="0 0 57.7 57.7" enable-background="new 0 0 57.7 57.7"><g><g><path d="M48.9 29c0 11-9 20-20 20-11.1 0-20-9-20-20s8.9-20 20-20c4.7 0 9.3 1.7 12.9 4.8l-3.4 3.4c-2.7-2.2-6.1-3.4-9.5-3.4-8.4 0-15.2 6.8-15.2 15.2 0 8.4 6.8 15.2 15.2 15.2 6.1 0 11.6-3.7 14-9.3l6-5.9zm8.4-12.1L40 33.9l-9.5 2.3 1.2-4.8H21.6c-1 0-1.5-1.1-1.5-2 0-.9.5-2 1.5-2h11l.2-.6 1.8-1.7h-13c-1 0-1.5-1.1-1.5-2s.5-2 1.5-2h17L50.2 9.7l7.1 7.2zm-30.8 21h-4.9c-1 0-1.5-1.1-1.5-2s.5-2 1.5-2h4.9c1 0 1.5 1.1 1.5 2s-.5 2-1.5 2z"/></g></g></svg>
