<svg xmlns="http://www.w3.org/2000/svg" viewBox="0 0 41 41" enable-background="new 0 0 41 41"><path fill="#FB6F71" d="M20.5 40.5c-11 0-20-9-20-20s9-20 20-20c11.1 0 20 9 20 20s-8.9 20-20 20zm7-15.9c-1.4 0-1.8 1.9-3.2 1.9-1.2 0-1.9-1.7-2.5-2.6-.9-1.5-1.9-3-2.9-4.5-.6-.9-1.6-1.9-1.6-3 0-2.1 3.5-1.4 3.5-3.5 0-1.3-2.3-6.3-3.8-6.2h-.2.2l-.7.1.5-.1c-1.6.2-3.4 1.6-4.5 2.9-.7.9-1 2-1 3.2 0 6.1 6.2 15 10.8 18.6-.1.2-.8 1.3-1.1 1.3-.5 0-.9-2.1-2.6-2.1-1.7 0-2.1 2.1-2.6 2.1s-.9-2.1-2.6-2.1c-1.7 0-2.1 2.1-2.6 2.1s-.9-2.1-2.6-2.1c-1 0-1.5.7-2 1.4l1.6 1c.1-.2.4-.7.6-.7.5 0 .9 2.1 2.6 2.1 1.7 0 2.1-2.1 2.6-2.1s.9 2.1 2.6 2.1c1.7 0 2.1-2.1 2.6-2.1s.9 2.1 2.6 2.1c1.1 0 1.8-1.2 2.3-2 1.1.7 2.4 1.2 3.7 1.2 1.5 0 5.3-1.9 5.3-3.5 0-1.1-3.8-5.5-5-5.5z"/></svg>