<svg xmlns="http://www.w3.org/2000/svg" viewBox="0 0 128 68" enable-background="new 0 0 128 68"><g><circle fill="#fff" cx="40.8" cy="22.4" r="7.4"/><circle fill="#fff" cx="87.2" cy="22.4" r="7.4"/><circle fill="#fff" cx="64.1" cy="23.4" r="10.9"/><path fill="#fff" d="M64.1 12.5c6 0 10.9 4.9 10.9 10.9s-4.9 10.9-10.9 10.9-10.9-4.9-10.9-10.9c-.1-6 4.8-10.9 10.9-10.9"/><path fill="#fff" d="M69.4 39.1H58.7L40.9 50v6.5h46.3V50zM69.4 39.1L87.2 50v6.5H40.9V50l17.8-10.9h10.7"/><path fill="#fff" d="M52.7 38.1L44.4 33h-7.3L25 40.4v4.5h16.5zM90.9 33h-7.3l-8.2 5 11.2 6.9H103v-4.5z"/></g></svg>