<svg xmlns="http://www.w3.org/2000/svg" viewBox="0 0 128 68" enable-background="new 0 0 128 68"><g><circle fill="#fff" cx="40.8" cy="22.4" r="7.4"/><circle fill="#fff" cx="87.2" cy="22.4" r="7.4"/><circle fill="#fff" cx="64.1" cy="23.4" r="10.9"/><path fill="#fff" d="M64.1 12.5c6 0 10.9 4.9 10.9 10.9s-4.9 10.9-10.9 10.9-10.9-4.9-10.9-10.9c-.1-6 4.8-10.9 10.9-10.9"/><polygon fill="#fff" points="69.4,39.1 58.7,39.1 40.9,50 40.9,56.5 87.2,56.5 87.2,50"/><polyline fill="#fff" points="69.4,39.1 87.2,50 87.2,56.5 40.9,56.5 40.9,50 58.7,39.1 69.4,39.1"/><polygon fill="#fff" points="52.7,38.1 44.4,33 37.1,33 25,40.4 25,44.9 41.5,44.9"/><polygon fill="#fff" points="90.9,33 83.6,33 75.4,38 86.6,44.9 103,44.9 103,40.4"/></g></svg>