<svg xmlns="http://www.w3.org/2000/svg" viewBox="0 0 57.7 57.7" enable-background="new 0 0 57.7 57.7"><g><g><g><circle cx="11.7" cy="20.8" r="5.5"/></g><g><circle cx="46" cy="20.8" r="5.5"/></g><circle cx="28.9" cy="21.6" r="8.1"/><path d="M28.9 13.5c4.5 0 8.1 3.6 8.1 8.1s-3.6 8.1-8.1 8.1-8.1-3.6-8.1-8.1 3.6-8.1 8.1-8.1"/><polygon points="32.8,33.1 24.9,33.1 11.8,41.1 11.8,46 46,46 46,41.1"/><polyline points="32.8,33.1 46,41.1 46,46 11.8,46 11.8,41.1 24.9,33.1 32.8,33.1"/><g><polygon points="20.5,32.4 14.4,28.6 9,28.6 0.1,34.1 0.1,37.4 12.3,37.4"/></g><g><polygon points="48.6,28.6 43.3,28.6 37.2,32.3 45.5,37.4 57.6,37.4 57.6,34.1"/></g></g></g></svg>
