<svg xmlns="http://www.w3.org/2000/svg" viewBox="0 0 57.7 57.7" enable-background="new 0 0 57.7 57.7"><g><g><path d="M28.3 49.3c-11 0-20-9-20-20s9-20 20-20 20 9 20 20-8.9 20-20 20zm5.1-9.1c-.6.3-1.6.5-2.2.5-1.4 0-2.1-.3-2.1-1.8 0-3.4 2.4-7.1 2.4-10.8 0-2.7-2.2-3.8-4.6-3.8-1.8 0-3.7.8-5.4 1.5l-.5 1.6c.7-.3 1.5-.5 2.3-.5 1.4 0 2 .3 2 1.8 0 3.4-2.4 7.2-2.4 10.9 0 2.7 2.2 3.8 4.6 3.8 1.9 0 3.6-.8 5.4-1.5l.5-1.7zm-3.2-25.7c-1.9 0-3.6 1.4-3.6 3.4s1.7 3.3 3.6 3.3c1.9 0 3.6-1.4 3.6-3.3s-1.7-3.4-3.6-3.4z"/></g></g></svg>
