<svg xmlns="http://www.w3.org/2000/svg" viewBox="0 0 41 41" enable-background="new 0 0 41 41"><path fill="#4C4C4C" d="M20.5 40.5c-11 0-20-9-20-20s9-20 20-20 20 9 20 20-9 20-20 20zm1-34.6c0-.6-.5-1.1-1-1.1-.6 0-1.1.5-1.1 1.1v3.2c0 .6.5 1.1 1.1 1.1.6 0 1-.5 1-1.1V5.9zm0 26c0-.6-.5-1.1-1-1.1-.6 0-1.1.5-1.1 1.1v3.2c0 .6.5 1 1.1 1 .6 0 1-.5 1-1v-3.2zm13.1-10.4c.6 0 1.1-.5 1.1-1.1 0-.6-.5-1-1-1h-3.2c-.6 0-1 .5-1.1 1.1s.4 1 1 1h3.2zM9 21.5c.6 0 1.1-.5 1.1-1.1 0-.6-.5-1-1-1H5.9c-.6 0-1 .5-1.1 1.1 0 .6.4 1 1 1H9zm11.5-7.1c-3.3 0-6.1 2.7-6.1 6.1s2.7 6.1 6.1 6.1 6.1-2.7 6.1-6.1-2.8-6.1-6.1-6.1z"/></svg>