<svg xmlns="http://www.w3.org/2000/svg" viewBox="0 0 57.7 57.7" enable-background="new 0 0 57.7 57.7"><g><path d="M28.8 48.8c-11 0-20-9-20-20s9-20 20-20 20 9 20 20-8.9 20-20 20zm1.1-34.6c0-.6-.5-1.1-1.1-1.1s-1 .5-1 1.1v3.2c0 .6.5 1 1 1s1.1-.5 1.1-1v-3.2zm0 26c0-.6-.5-1.1-1.1-1.1s-1 .5-1 1.1v3.2c0 .6.5 1.1 1 1.1s1.1-.5 1.1-1.1v-3.2zm13-10.3c.6 0 1.1-.5 1.1-1.1s-.5-1-1-1h-3.2c-.6 0-1 .5-1.1 1.1s.4 1 1 1h3.2zm-25.6 0c.6 0 1.1-.5 1.1-1.1 0-.6-.5-1-1-1h-3.2c-.6 0-1 .5-1.1 1.1 0 .6.4 1 1 1h3.2zm11.5-7.1c-3.3 0-6.1 2.7-6.1 6.1 0 3.3 2.7 6.1 6.1 6.1s6.1-2.7 6.1-6.1c0-3.4-2.7-6.1-6.1-6.1z"/></g></svg>
