<svg xmlns="http://www.w3.org/2000/svg" viewBox="0 0 57.7 57.7" enable-background="new 0 0 57.7 57.7"><g><g><path d="M28.8 48.8c-11 0-20-9-20-20s9-20 20-20 20 9 20 20-8.9 20-20 20zm0-35.2c-8.4 0-15.2 6.8-15.2 15.2S20.5 44 28.8 44 44 37.2 44 28.8s-6.8-15.2-15.2-15.2zm7.3 11.2H21.6c-1 0-1.5-1.1-1.5-2s.5-2 1.5-2h14.5c1 0 1.5 1.1 1.5 2s-.5 2-1.5 2zm0 6.4H21.6c-1 0-1.5-1.1-1.5-2s.5-2 1.5-2h14.5c1 0 1.5 1.1 1.5 2s-.5 2-1.5 2zm0 6.4H21.6c-1 0-1.5-1.1-1.5-2s.5-2 1.5-2h14.5c1 0 1.5 1.1 1.5 2s-.5 2-1.5 2z"/></g></g></svg>
