<svg xmlns="http://www.w3.org/2000/svg" viewBox="0 0 41 41" enable-background="new 0 0 41 41"><path fill="#4C4C4C" d="M20.5 40.5c-11 0-20-9-20-20s9-20 20-20 20 9 20 20-9 20-20 20zm0-35.2c-8.4 0-15.2 6.8-15.2 15.2s6.8 15.2 15.2 15.2 15.2-6.8 15.2-15.2S28.9 5.3 20.5 5.3zm7.3 11.2H13.2c-1 0-1.5-1.1-1.5-2s.5-2 1.5-2h14.5c1 0 1.5 1.1 1.5 2s-.4 2-1.4 2zm0 6.4H13.2c-1 0-1.5-1.1-1.5-2s.5-2 1.5-2h14.5c1 0 1.5 1.1 1.5 2s-.4 2-1.4 2zm0 6.4H13.2c-1 0-1.5-1.1-1.5-2s.5-2 1.5-2h14.5c1 0 1.5 1.1 1.5 2s-.4 2-1.4 2z"/></svg>