<svg xmlns="http://www.w3.org/2000/svg" viewBox="0 0 122 61" enable-background="new 0 0 122 61"><g><path fill="#535A6B" d="M60.8 61H-.1V.1h60.9V61zM49.9 20.5L46.5 17c-.3-.3-.7-.4-1.2-.4s-.8.1-1.1.4L23.6 37.6l-9.8-9.8c-.3-.3-.7-.5-1.1-.5-.4 0-.9.2-1.2.5l-3.4 3.4c-.3.3-.5.7-.5 1.2 0 .4.2.8.5 1.1l10.9 11c1 1 2 1.9 2.9 2.9.5.5.9 1 1.7 1 .4 0 .8-.2 1.1-.5l25.2-25.2c.3-.3.5-.7.5-1.2s-.2-.7-.5-1z"/><path fill="#FB6F71" d="M121.8 61H60.9V.1h60.9V61zm-15.3-42.2l-3.4-3.4c-.3-.3-.7-.4-1.1-.4-.4 0-.8.1-1.1.4l-9.5 9.5-9.5-9.5c-.3-.3-.7-.4-1.1-.4s-.8.1-1.1.4l-3.4 3.4c-.3.3-.4.7-.4 1.1s.1.8.4 1.1l9.5 9.5-9.5 9.5c-.3.3-.4.7-.4 1.1 0 .4.1.8.4 1.1l3.4 3.4c.3.3.7.4 1.1.4s.8-.1 1.1-.4l9.5-9.5 9.5 9.5c.3.3.7.4 1.1.4.4 0 .8-.1 1.1-.4l3.4-3.4c.3-.3.4-.7.4-1.1 0-.4-.1-.8-.4-1.1L97 30.5l9.5-9.5c.3-.3.4-.7.4-1.1s-.1-.9-.4-1.1z"/></g></svg>